<?xml version="1.0" standalone="no"?>
<!DOCTYPE svg PUBLIC "-//W3C//DTD SVG 20010904//EN"
 "http://www.w3.org/TR/2001/REC-SVG-20010904/DTD/svg10.dtd">
<svg version="1.0" xmlns="http://www.w3.org/2000/svg"
 width="550.000000pt" height="688.000000pt" viewBox="0 0 550.000000 688.000000"
 preserveAspectRatio="xMidYMid meet">

<g transform="translate(0.000000,688.000000) scale(0.100000,-0.100000)"
fill="#000000" stroke="none">
<path d="M0 3440 l0 -3440 2750 0 2750 0 0 3440 0 3440 -2750 0 -2750 0 0
-3440z m2681 2658 c9 -19 9 -21 -2 -10 -7 6 -20 12 -28 12 -13 0 -13 -2 -3 -9
11 -7 10 -10 -3 -15 -24 -9 -25 -8 -18 12 14 36 38 41 54 10z m-108 -52 c-36
-30 -92 -43 -104 -25 -6 10 -9 11 -9 2 0 -7 -5 -13 -12 -13 -7 0 -3 9 8 21 14
13 37 21 70 24 26 1 50 8 52 14 2 6 8 9 13 5 5 -3 -3 -16 -18 -28z m837 25 c0
-6 -4 -13 -10 -16 -5 -3 -10 1 -10 9 0 9 5 16 10 16 6 0 10 -4 10 -9z m-755
-11 c-3 -5 -11 -10 -16 -10 -6 0 -7 5 -4 10 3 6 11 10 16 10 6 0 7 -4 4 -10z
m63 -15 c-3 -3 -9 2 -12 12 -6 14 -5 15 5 6 7 -7 10 -15 7 -18z m49 -11 c-3
-3 -12 -4 -19 -1 -8 3 -5 6 6 6 11 1 17 -2 13 -5z m880 -39 c0 -8 -6 -15 -14
-15 -14 0 -17 12 -6 23 11 11 20 8 20 -8z m-520 -1 c-3 -3 -12 -4 -19 -1 -8 3
-5 6 6 6 11 1 17 -2 13 -5z m-739 -31 c5 -17 -15 -16 -53 2 l-30 14 39 -2 c22
-1 41 -8 44 -14z m1269 -79 c0 -7 -6 -10 -14 -7 -7 3 -13 8 -13 12 0 4 6 8 13
8 8 0 14 -6 14 -13z m-1537 -14 c0 -5 -2 -10 -4 -10 -3 0 -8 5 -11 10 -3 6 -1
10 4 10 6 0 11 -4 11 -10z m145 0 l20 -9 -20 -1 c-13 -1 -15 -3 -6 -7 11 -5
11 -7 0 -14 -11 -7 -10 -9 4 -9 17 0 24 -30 10 -44 -13 -13 -9 -30 10 -46 18
-15 18 -16 -9 -30 -21 -12 -28 -12 -31 -3 -3 8 -11 10 -21 5 -24 -12 -45 -9
-50 6 -3 9 3 13 14 11 23 -3 64 9 64 20 0 4 -15 15 -32 24 -32 15 -32 16 -11
23 13 3 20 10 17 15 -3 5 -11 6 -17 3 -7 -4 -8 -3 -4 2 5 5 14 9 20 9 7 0 13
10 15 23 3 17 -2 22 -17 22 -12 0 -21 -6 -21 -14 0 -8 -5 -18 -11 -22 -8 -4
-9 1 -4 16 6 20 5 22 -25 15 -23 -5 -30 -4 -26 4 8 13 102 14 131 1z m662 4
c-3 -3 -12 -4 -19 -1 -8 3 -5 6 6 6 11 1 17 -2 13 -5z m-817 -34 c8 -15 6 -21
-8 -29 -16 -8 -18 -5 -18 24 0 35 9 37 26 5z m555 10 c-3 -5 -13 -10 -21 -10
-8 0 -14 5 -14 10 0 6 9 10 21 10 11 0 17 -4 14 -10z m-502 -7 c-7 -2 -21 -2
-30 0 -10 3 -4 5 12 5 17 0 24 -2 18 -5z m642 -13 c4 -6 -5 -10 -19 -10 -14 0
-26 5 -26 10 0 6 9 10 19 10 11 0 23 -4 26 -10z m622 4 c-3 -3 -12 -4 -19 -1
-8 3 -5 6 6 6 11 1 17 -2 13 -5z m-1437 -44 c0 -5 -4 -10 -10 -10 -5 0 -10 5
-10 10 0 6 5 10 10 10 6 0 10 -4 10 -10z m514 -52 c7 -5 5 -8 -6 -8 -14 0 -18
8 -17 33 2 27 2 28 6 7 3 -14 10 -28 17 -32z m328 30 c-12 -12 -35 -1 -27 12
3 5 13 6 21 3 10 -4 12 -9 6 -15z m78 6 c0 -2 -7 -4 -15 -4 -8 0 -15 4 -15 10
0 5 7 7 15 4 8 -4 15 -8 15 -10z m1059 -6 c27 2 61 2 75 -2 28 -7 36 -36 11
-36 -8 0 -15 6 -15 13 0 8 -17 12 -50 13 -32 1 -47 -2 -43 -9 4 -7 -1 -8 -13
-3 -10 5 -24 9 -29 9 -6 0 -12 9 -12 19 -2 15 0 16 12 5 9 -10 29 -13 64 -9z
m251 12 c0 -5 -4 -10 -10 -10 -5 0 -10 5 -10 10 0 6 5 10 10 10 6 0 10 -4 10
-10z m-2103 -16 c-3 -3 -12 -4 -19 -1 -8 3 -5 6 6 6 11 1 17 -2 13 -5z m-117
-14 c0 -5 -5 -10 -11 -10 -5 0 -7 5 -4 10 3 6 8 10 11 10 2 0 4 -4 4 -10z
m820 -44 c-8 -8 -15 -6 -25 8 -20 26 -7 41 16 20 14 -13 16 -21 9 -28z m1434
33 c-17 -6 -16 -7 6 -11 14 -3 -9 -5 -50 -5 -41 -1 -67 1 -57 4 9 2 15 8 13
11 -2 4 21 7 51 8 31 0 47 -3 37 -7z m-2429 -9 c3 -5 -3 -10 -15 -10 -12 0
-18 5 -15 10 3 6 10 10 15 10 5 0 12 -4 15 -10z m85 0 c0 -5 -4 -10 -10 -10
-5 0 -10 5 -10 10 0 6 5 10 10 10 6 0 10 -4 10 -10z m200 0 c0 -5 -5 -10 -11
-10 -5 0 -7 5 -4 10 3 6 8 10 11 10 2 0 4 -4 4 -10z m633 -7 c-7 -2 -19 -2
-25 0 -7 3 -2 5 12 5 14 0 19 -2 13 -5z m1257 3 c0 -11 -19 -15 -25 -6 -3 5 1
10 9 10 9 0 16 -2 16 -4z m123 -3 c-7 -2 -21 -2 -30 0 -10 3 -4 5 12 5 17 0
24 -2 18 -5z m-263 -43 c0 -5 -7 -7 -15 -4 -8 4 -12 10 -9 15 6 11 24 2 24
-11z m-1193 -16 c-9 -9 -28 6 -21 18 4 6 10 6 17 -1 6 -6 8 -13 4 -17z m53 11
c0 -8 -9 -15 -20 -15 -11 0 -20 7 -20 15 0 8 9 15 20 15 11 0 20 -7 20 -15z
m1235 5 c4 -6 -12 -9 -42 -9 -47 2 -47 2 -13 9 19 4 38 8 42 9 4 0 10 -3 13
-9z m-973 -17 c-12 -2 -20 -9 -17 -14 4 -5 -4 -9 -17 -9 -22 1 -22 1 -4 15 11
8 29 14 40 14 19 -2 19 -2 -2 -6z m-842 -22 c0 -6 -4 -13 -10 -16 -5 -3 -10 1
-10 9 0 9 5 16 10 16 6 0 10 -4 10 -9z m-147 -28 c-13 -2 -35 -2 -50 0 -16 2
-5 4 22 4 28 0 40 -2 28 -4z m1827 -10 c0 -11 -3 -14 -8 -7 -4 6 -14 14 -22
17 -10 4 -8 6 8 6 15 1 22 -5 22 -16z m-720 -23 c0 -6 -33 -9 -82 -8 l-83 2
70 6 c39 4 76 7 83 8 6 1 12 -2 12 -8z m883 3 c-7 -2 -19 -2 -25 0 -7 3 -2 5
12 5 14 0 19 -2 13 -5z m-1956 -19 c-3 -3 -12 -4 -19 -1 -8 3 -5 6 6 6 11 1
17 -2 13 -5z m48 -4 c-3 -5 -12 -10 -18 -10 -7 0 -6 4 3 10 19 12 23 12 15 0z
m857 -12 c-5 -5 -17 -6 -26 -2 -13 5 -14 9 -5 14 16 11 43 0 31 -12z m1076
-55 c2 -8 -5 -13 -17 -13 -12 0 -21 6 -21 16 0 18 31 15 38 -3z m188 4 c4 -4
-2 -7 -14 -7 -12 0 -22 4 -22 9 0 10 26 9 36 -2z m-1439 -40 c-2 -28 -6 -33
-29 -35 -22 -2 -26 1 -21 15 5 15 41 52 50 53 2 0 2 -15 0 -33z m88 6 c-2 -10
-4 -21 -4 -25 -1 -5 -10 -8 -21 -8 -15 0 -20 7 -20 25 0 20 5 25 24 25 18 0
23 -5 21 -17z m-1261 -8 c-4 -8 -10 -15 -15 -15 -5 0 -9 7 -9 15 0 8 7 15 15
15 9 0 12 -6 9 -15z m131 4 c-17 -5 -42 -5 -60 0 -25 8 -21 9 30 9 50 0 55 -1
30 -9z m592 5 c-3 -3 -12 -4 -19 -1 -8 3 -5 6 6 6 11 1 17 -2 13 -5z m83 -50
c0 -8 -2 -14 -5 -14 -6 0 -35 56 -35 67 1 14 40 -39 40 -53z m780 40 c9 -9
-17 -39 -37 -42 -21 -3 -34 21 -25 46 4 13 48 9 62 -4z m37 -16 c-3 -7 -5 -2
-5 12 0 14 2 19 5 13 2 -7 2 -19 0 -25z m-1741 -5 c-10 -10 -19 5 -10 18 6 11
8 11 12 0 2 -7 1 -15 -2 -18z m1595 20 c0 -5 2 -17 4 -28 6 -28 -52 -52 -73
-31 -10 10 -11 16 -3 21 6 3 10 1 9 -6 -2 -6 2 -13 8 -16 10 -3 12 2 16 47 2
19 37 30 39 13z m1059 -5 c0 -10 -44 -8 -85 2 -23 6 -17 7 28 7 31 -1 57 -5
57 -9z m-1445 -8 c3 -5 -1 -10 -9 -10 -9 0 -16 5 -16 10 0 6 4 10 9 10 6 0 13
-4 16 -10z m1553 -17 c-5 -26 -38 -29 -38 -4 0 15 6 21 21 21 14 0 19 -5 17
-17z m-968 -8 c0 -1 -9 -5 -20 -8 -12 -3 -20 0 -20 8 0 8 8 11 20 8 11 -3 20
-7 20 -8z m164 -1 c9 -22 -3 -32 -14 -14 -12 19 -12 30 -1 30 5 0 12 -7 15
-16z m331 -8 c13 -6 16 -10 7 -13 -20 -8 -42 5 -42 24 0 11 3 14 8 7 4 -6 16
-14 27 -18z m630 13 c-33 -5 -65 -7 -72 -5 -7 3 -10 -1 -6 -10 3 -7 0 -14 -6
-14 -6 0 -11 5 -11 10 0 6 -7 10 -15 10 -8 0 -15 5 -15 10 0 6 37 10 93 9 l92
-1 -60 -9z m-236 -23 c-2 -2 -13 -6 -23 -8 -24 -4 -33 19 -9 24 18 4 41 -7 32
-16z m-1563 -54 c-7 -6 -30 20 -47 53 -6 11 4 5 21 -13 17 -19 29 -37 26 -40z
m338 53 c4 -10 -1 -15 -15 -15 -11 0 -18 4 -15 9 4 5 0 12 -6 14 -7 3 -3 6 8
6 12 1 24 -6 28 -14z m726 11 c0 -3 -4 -8 -10 -11 -5 -3 -10 -1 -10 4 0 6 5
11 10 11 6 0 10 -2 10 -4z m188 -16 c-3 -14 -19 -17 -17 -3 0 4 -8 10 -18 14
-13 6 -11 7 10 6 19 -1 27 -6 25 -17z m-2148 -7 c0 -19 -41 -28 -70 -16 -13 5
1 12 68 32 1 1 2 -7 2 -16z m2380 7 c0 -5 -12 -10 -27 -9 l-28 1 25 8 c14 4
26 8 28 9 1 1 2 -3 2 -9z m-1153 -40 c4 -12 3 -13 -5 -1 -9 13 -33 12 -76 -5
-11 -4 -16 -1 -16 10 0 14 9 17 47 14 31 -2 48 -8 50 -18z m303 13 c-24 -3
-48 -9 -51 -15 -5 -8 -13 -6 -24 5 -15 16 -12 17 52 15 53 -1 58 -2 23 -5z
m460 -44 c0 -5 -12 -9 -26 -9 -23 0 -24 1 -9 16 9 9 12 21 8 28 -4 7 0 3 10
-7 9 -11 17 -23 17 -28z m-967 27 c4 -9 14 -12 27 -9 19 5 21 2 18 -21 -2 -15
-7 -26 -12 -25 -5 0 -13 -5 -17 -13 -8 -11 -10 -11 -18 0 -4 8 -10 13 -12 11
-14 -8 -46 14 -45 32 2 33 49 53 59 25z m1124 -21 c0 -21 -5 -35 -13 -35 -17
0 -23 31 -10 53 16 26 23 21 23 -18z m-58 4 c1 8 3 12 6 9 8 -7 -5 -38 -16
-38 -5 0 -9 12 -8 28 0 24 1 25 9 7 5 -12 9 -14 9 -6z m-679 -24 c0 -8 -4 -15
-10 -15 -5 0 -7 7 -4 15 4 8 8 15 10 15 2 0 4 -7 4 -15z m305 6 c3 -5 1 -12
-5 -16 -5 -3 -10 1 -10 9 0 18 6 21 15 7z m-365 -11 c0 -5 -7 -10 -16 -10 -8
0 -12 5 -9 10 3 6 10 10 16 10 5 0 9 -4 9 -10z m-1920 -15 c0 -8 -7 -15 -15
-15 -8 0 -15 7 -15 15 0 8 7 15 15 15 8 0 15 -7 15 -15z m485 -4 c7 -12 -12
-24 -25 -16 -11 7 -4 25 10 25 5 0 11 -4 15 -9z m-678 -17 c-3 -3 -12 -4 -19
-1 -8 3 -5 6 6 6 11 1 17 -2 13 -5z m323 2 c0 -3 -4 -8 -10 -11 -5 -3 -10 -1
-10 4 0 6 5 11 10 11 6 0 10 -2 10 -4z m188 -4 c13 -9 6 -42 -9 -42 -11 0 -30
36 -22 44 8 8 15 7 31 -2z m1662 -32 c0 -5 -4 -10 -10 -10 -5 0 -10 5 -10 10
0 6 5 10 10 10 6 0 10 -4 10 -10z m870 -9 c0 -5 -5 -13 -11 -16 -6 -4 -9 -20
-7 -35 1 -17 -5 -37 -16 -49 -19 -21 -14 -41 10 -41 8 0 12 -4 9 -10 -3 -5
-26 -10 -50 -10 -39 0 -45 3 -51 24 -4 17 -15 26 -37 31 -18 4 -26 9 -20 12 7
2 15 26 19 52 l6 48 74 2 c44 1 74 -2 74 -8z m-1452 -32 c2 -23 2 -23 -13 -5
-18 24 -20 39 -2 34 6 -3 13 -15 15 -29z m792 21 c4 0 8 -20 8 -45 -1 -29 -6
-45 -14 -45 -19 0 -28 -38 -13 -56 18 -22 -2 -38 -26 -20 -13 9 -16 18 -10 32
4 10 7 24 6 29 -2 6 0 34 4 63 5 42 10 52 22 48 8 -3 18 -6 23 -6z m479 -23
c-2 -1 -11 -8 -20 -15 -13 -9 -16 -9 -16 3 0 8 9 15 20 15 11 0 18 -1 16 -3z
m-549 -49 c0 -18 -2 -20 -9 -8 -6 8 -7 18 -5 22 9 14 14 9 14 -14z m-470 -3
c0 -12 -19 -12 -23 0 -4 9 -1 12 9 8 7 -3 14 -7 14 -8z m915 -41 c17 -17 19
-90 4 -129 -6 -15 -8 -12 -8 17 -1 20 -7 39 -13 41 -8 3 -6 6 5 6 22 1 22 7
-3 38 -32 41 -20 62 15 27z m75 2 c0 -3 -4 -8 -10 -11 -5 -3 -10 -1 -10 4 0 6
5 11 10 11 6 0 10 -2 10 -4z m51 -43 c13 -16 12 -17 -3 -4 -17 13 -22 21 -14
21 2 0 10 -8 17 -17z m194 7 c3 -5 1 -10 -4 -10 -6 0 -11 5 -11 10 0 6 2 10 4
10 3 0 8 -4 11 -10z m-816 -55 c0 -5 -6 -1 -14 9 -8 11 -15 24 -15 30 0 5 7 1
15 -10 8 -10 14 -23 14 -29z m1408 39 c-3 -3 -12 -4 -19 -1 -8 3 -5 6 6 6 11
1 17 -2 13 -5z m-1268 -118 c-5 -27 -9 -50 -9 -52 0 -2 -7 -4 -15 -4 -10 0
-15 -11 -15 -35 0 -25 -4 -33 -14 -29 -10 4 -16 -13 -24 -67 -10 -65 -9 -73 9
-92 10 -11 19 -30 19 -42 0 -25 -29 -116 -41 -129 -5 -6 -9 -18 -9 -27 0 -22
-36 -66 -46 -56 -4 4 -1 18 6 32 15 27 7 46 -12 27 -16 -16 -28 -15 -28 3 0 9
-9 15 -21 15 -15 0 -19 5 -15 15 3 8 1 15 -4 15 -6 0 -10 8 -10 19 0 10 -9 30
-20 44 -11 14 -20 30 -20 36 0 6 -9 11 -20 11 -10 0 -24 9 -30 21 -7 11 -14
18 -17 15 -10 -10 -33 15 -26 28 4 8 3 8 -6 0 -18 -17 2 -49 42 -69 67 -33 72
-40 72 -110 0 -47 4 -65 13 -65 7 0 19 -6 25 -12 14 -15 16 -86 4 -106 -5 -7
-6 -24 -3 -38 6 -22 -7 -61 -23 -74 -4 -3 -23 -28 -43 -55 -20 -28 -46 -59
-58 -70 -22 -20 -22 -20 -41 3 -13 17 -17 32 -12 54 5 26 4 30 -10 25 -10 -4
-17 -2 -17 5 0 6 -11 8 -30 5 -26 -6 -30 -4 -30 16 0 18 -2 19 -10 7 -5 -8
-10 -25 -10 -38 0 -15 -5 -22 -12 -19 -7 2 -13 17 -13 34 0 28 -27 68 -38 57
-3 -3 -4 6 -3 20 1 24 16 38 16 16 0 -5 5 -10 10 -10 6 0 10 7 10 15 0 8 -7
15 -16 15 -9 0 -12 5 -8 13 4 6 -1 4 -12 -5 -28 -25 -64 -20 -64 9 0 13 4 23
10 23 5 0 9 22 8 50 -2 28 -6 50 -11 50 -4 0 -5 5 -2 10 3 6 1 10 -5 10 -7 0
-10 7 -6 15 10 26 -8 16 -41 -22 -38 -46 -52 -39 -19 9 13 20 27 55 31 79 7
46 34 109 47 109 5 0 8 7 8 16 0 8 5 12 11 9 7 -5 4 -14 -8 -27 -18 -21 -18
-21 5 -9 19 10 22 9 22 -8 0 -11 -8 -27 -17 -37 -17 -17 -17 -17 5 -12 19 5
25 1 34 -23 5 -16 14 -29 20 -29 5 0 7 -4 3 -9 -3 -5 7 -22 22 -37 35 -35 42
-15 10 28 -28 37 -27 44 20 112 27 39 33 58 33 100 l0 51 20 -25 c12 -15 18
-18 14 -7 -3 9 -1 17 4 17 6 0 16 -8 21 -17 6 -10 11 -13 11 -6 0 6 -5 15 -11
19 -6 3 -9 17 -6 30 2 13 0 24 -6 24 -6 0 -7 3 -4 6 4 4 14 1 23 -7 16 -13 17
-11 10 23 -8 45 8 85 28 69 7 -6 16 -8 20 -4 14 15 56 14 56 -1 0 -9 7 -13 20
-11 15 3 20 -2 20 -16 0 -11 5 -17 10 -14 6 3 10 1 10 -5 0 -6 -6 -10 -12 -9
-34 4 -58 -2 -58 -16 0 -8 -6 -15 -12 -15 -9 0 -8 -3 2 -10 9 -6 17 -5 22 3 6
9 12 9 25 1 27 -17 27 -39 -1 -69 -25 -27 -33 -45 -20 -45 4 0 13 8 20 18 12
16 13 15 14 -5 0 -29 14 -29 41 -2 20 20 20 23 5 31 -13 7 -16 18 -11 46 6 41
4 38 31 46 17 5 22 3 20 -11 0 -9 7 -19 17 -21 10 -2 17 3 17 13 0 8 7 18 15
21 12 5 13 9 4 20 -7 8 -8 18 -4 22 4 4 10 2 12 -5 7 -19 33 -3 32 21 0 11 -3
15 -6 9 -3 -8 -14 -11 -29 -7 -13 3 -24 2 -24 -2 0 -5 -14 -10 -32 -10 -25 -1
-29 1 -16 10 8 6 13 17 11 24 -3 7 1 10 11 6 13 -5 15 -2 9 12 -4 11 -13 25
-20 32 -19 20 -7 31 25 22 16 -4 26 -13 24 -21 -11 -44 -10 -49 9 -49 11 0 17
4 14 10 -3 5 1 20 9 32 9 12 16 17 16 9 0 -21 35 -7 36 14 1 11 2 36 4 55 l2
35 8 -35 c5 -19 4 -57 -1 -84z m698 93 c-1 -17 -7 -20 -41 -17 -55 5 -58 26
-4 31 24 2 44 4 45 5 1 1 1 -7 0 -19z m-777 -25 c0 -8 -5 -12 -10 -9 -6 4 -8
11 -5 16 9 14 15 11 15 -7z m735 -14 c-3 -5 -14 -10 -23 -9 -14 0 -13 2 3 9
27 11 27 11 20 0z m55 5 c0 -2 -10 -10 -22 -16 -21 -11 -22 -11 -9 4 13 16 31
23 31 12z m-1002 -16 c18 -6 29 -15 26 -20 -3 -5 0 -9 5 -9 6 0 11 -7 11 -15
0 -8 5 -15 12 -15 6 0 8 -3 5 -7 -4 -3 -16 3 -27 15 -25 27 -70 30 -70 5 0
-14 -2 -15 -9 -4 -7 11 -11 10 -20 -5 -8 -15 -10 -16 -11 -3 0 8 5 20 12 27 7
7 8 12 3 12 -6 0 21 27 31 30 1 0 15 -5 32 -11z m716 -8 c4 -5 -1 -8 -9 -7
-21 3 -31 16 -12 16 9 0 18 -4 21 -9z m-808 -59 c-11 -10 -15 4 -8 28 l7 25 3
-23 c2 -13 1 -26 -2 -30z m1041 42 c-3 -3 -12 -4 -19 -1 -8 3 -5 6 6 6 11 1
17 -2 13 -5z m-164 -30 c-4 -12 5 -14 59 -13 35 1 81 -4 101 -10 39 -13 49
-37 20 -44 -16 -3 -16 -5 2 -12 100 -40 102 -39 -55 -46 -80 -3 -156 -9 -169
-14 -24 -8 -24 -8 -17 43 5 39 3 52 -6 53 -10 0 -10 2 0 6 6 2 12 12 12 20 0
13 -3 13 -15 3 -10 -9 -15 -9 -15 -1 0 11 5 13 33 15 6 1 18 7 25 14 17 15 33
7 25 -14z m-103 6 c0 -5 -4 -10 -10 -10 -5 0 -10 5 -10 10 0 6 5 10 10 10 6 0
10 -4 10 -10z m471 -11 c35 0 76 -3 91 -5 28 -6 44 -29 26 -40 -6 -4 -8 -3 -5
3 6 10 -4 11 -128 16 -54 2 -85 14 -85 32 0 3 8 4 18 1 10 -4 47 -7 83 -7z
m-1652 -57 c11 -20 -4 -111 -21 -127 -7 -7 -9 -2 -4 15 16 56 18 107 6 115
-20 12 -59 -39 -66 -86 -4 -22 -10 -42 -15 -45 -8 -5 -6 21 7 84 10 51 73 81
93 44z m656 -22 c-3 -5 -11 -10 -16 -10 -6 0 -7 5 -4 10 3 6 11 10 16 10 6 0
7 -4 4 -10z m-1475 -7 c0 -5 -11 -13 -25 -20 -14 -6 -25 -8 -25 -4 0 5 10 13
23 19 28 14 27 13 27 5z m2318 -59 c-4 -3 -2 -19 2 -35 8 -28 7 -31 -22 -33
-34 -3 -36 -41 -3 -44 16 -1 25 3 25 13 0 8 4 15 9 15 12 0 -3 -52 -23 -82 -9
-12 -16 -16 -16 -9 0 7 -11 22 -25 33 -25 19 -33 52 -16 62 12 8 1 56 -13 57
-6 1 -32 1 -57 0 -33 -1 -48 3 -53 14 -5 13 10 15 96 15 56 0 99 -3 96 -6z
m-200 -48 c1 -21 -4 -36 -13 -39 -9 -4 -12 0 -10 14 2 11 0 17 -6 14 -13 -9
-11 29 3 43 17 17 25 7 26 -32z m-51 2 c0 -7 4 -20 7 -29 5 -12 1 -18 -17 -21
-15 -3 -24 0 -24 8 0 7 4 11 9 8 8 -5 12 9 9 34 -1 6 2 12 7 12 5 0 9 -6 9
-12z m88 -18 c3 -5 -1 -10 -10 -10 -9 0 -13 5 -10 10 3 6 8 10 10 10 2 0 7 -4
10 -10z m5 -34 c0 -3 -4 -8 -10 -11 -5 -3 -10 -1 -10 4 0 6 5 11 10 11 6 0 10
-2 10 -4z m888 -13 c-21 -2 -57 -2 -80 0 -24 2 -7 4 37 4 44 0 63 -2 43 -4z
m-828 -18 c16 -19 24 -79 10 -70 -6 3 -10 12 -10 20 0 7 -7 15 -15 19 -16 6
-21 46 -6 46 5 0 14 -7 21 -15z m-2358 -13 c10 -4 -36 -7 -101 -7 -66 0 -114
3 -108 7 15 9 186 9 209 0z m954 -37 c-7 -20 -23 -19 -28 3 -8 30 2 44 19 27
8 -9 12 -22 9 -30z m115 -32 c-25 -82 -190 -413 -206 -413 -2 0 -3 9 -2 19 0
11 4 18 8 16 9 -6 39 74 39 103 0 13 -6 22 -15 22 -19 0 -19 14 0 33 13 13 13
16 0 21 -11 4 -13 14 -9 38 8 40 46 106 52 89 2 -6 -1 -17 -6 -24 -6 -7 -13
-29 -17 -50 -11 -59 18 -37 33 25 6 29 15 54 19 57 5 3 19 22 32 41 25 36 83
97 89 94 2 -1 -6 -33 -17 -71z m-810 -4 c79 -28 162 -59 184 -69 22 -9 48 -20
58 -23 45 -16 158 -101 201 -151 26 -31 58 -59 72 -62 25 -6 64 -60 64 -88 0
-28 -18 -18 -37 21 -16 35 -23 39 -78 50 -177 35 -370 52 -388 34 -6 -6 -25
-11 -41 -11 -29 1 -28 3 24 30 61 32 81 36 113 18 12 -6 60 -12 107 -13 l85
-2 1 30 c2 46 -54 91 -150 122 -44 14 -83 25 -87 25 -4 0 -28 14 -52 30 -25
17 -50 30 -55 30 -11 0 -152 48 -217 75 l-40 16 46 -5 c26 -3 111 -28 190 -57z
m1709 29 c0 -12 -6 -9 -26 13 -19 22 -19 22 4 8 12 -8 22 -17 22 -21z m-2230
18 c0 -2 -8 -10 -17 -17 -16 -13 -17 -12 -4 4 13 16 21 21 21 13z m1165 -26
c-4 -12 -9 -19 -12 -17 -3 3 -2 15 2 27 4 12 9 19 12 17 3 -3 2 -15 -2 -27z
m1095 0 c0 -16 -4 -30 -9 -30 -12 0 -19 21 -13 43 7 28 22 20 22 -13z m225 2
c3 -8 0 -21 -7 -29 -10 -12 -14 -11 -24 9 -8 13 -13 26 -14 30 0 13 39 4 45
-10z m45 -2 c0 -5 -2 -10 -4 -10 -3 0 -8 5 -11 10 -3 6 -1 10 4 10 6 0 11 -4
11 -10z m80 -40 c-12 -8 -12 -10 -1 -10 7 0 11 -6 8 -13 -3 -8 -1 -20 4 -28 7
-11 9 -10 9 4 0 11 5 17 13 14 6 -2 11 -10 10 -16 -2 -6 2 -11 7 -11 6 0 10 5
10 11 0 6 9 1 20 -12 10 -13 19 -19 20 -12 0 6 -5 15 -10 18 -8 5 -7 11 0 21
20 23 61 -11 58 -48 -1 -16 -6 -32 -10 -34 -5 -3 -15 -22 -23 -41 -12 -29 -13
-38 -3 -44 8 -5 16 -2 22 8 8 15 10 15 22 -2 13 -18 14 -17 14 6 0 19 2 21 10
9 7 -11 10 -12 10 -2 0 10 12 13 45 9 56 -5 59 -8 43 -38 -9 -17 -20 -23 -35
-21 -19 3 -23 -1 -23 -22 0 -16 -6 -26 -15 -26 -8 0 -15 -8 -14 -17 0 -11 3
-13 6 -5 8 20 23 14 24 -10 0 -22 1 -22 9 -3 5 11 9 14 9 6 1 -7 7 -11 15 -8
8 3 17 -1 20 -10 4 -8 12 -13 20 -10 10 4 12 -1 8 -16 -5 -22 -5 -22 16 -3 33
29 39 11 6 -19 -15 -14 -34 -23 -42 -20 -12 4 -13 3 -2 -10 15 -18 0 -20 -19
-2 -11 10 -12 9 -7 -3 3 -8 9 -23 12 -32 4 -10 10 -18 15 -18 5 0 9 -4 9 -10
0 -5 -7 -7 -15 -4 -15 6 -37 -34 -32 -58 1 -6 -3 -12 -9 -15 -7 -2 -10 5 -7
19 3 16 -6 34 -30 61 -34 36 -57 47 -57 26 0 -5 4 -8 9 -5 10 6 25 -24 16 -32
-3 -3 -5 0 -5 7 0 7 -4 9 -10 6 -5 -3 -12 6 -16 21 -6 24 -8 25 -19 11 -11
-15 -14 -15 -32 6 -42 46 -74 104 -67 123 5 15 4 16 -5 4 -11 -16 -16 -14 -25
16 -4 14 -2 24 8 27 9 4 15 20 15 44 0 21 3 51 7 67 4 18 3 27 -3 23 -6 -4
-19 0 -29 8 -16 12 -17 16 -5 24 10 6 11 17 6 37 -8 27 -9 27 -12 7 -3 -16
-11 -23 -26 -23 -16 0 -18 3 -8 9 7 5 13 25 13 46 0 53 17 70 43 44 17 -17 18
-21 5 -29z m250 27 c0 -8 -7 -14 -15 -14 -25 0 -17 17 13 26 1 1 2 -5 2 -12z
m-664 -8 c4 -8 9 -7 15 2 7 11 9 10 9 -3 0 -10 -4 -18 -8 -18 -13 0 -48 29
-35 30 6 0 15 -5 19 -11z m-2256 -51 c0 -23 -3 -29 -9 -19 -8 12 -4 51 5 51 2
0 4 -15 4 -32z m2560 18 c0 -8 -4 -17 -9 -20 -10 -7 -23 19 -14 28 11 11 23 6
23 -8z m-295 -6 c-3 -5 -1 -10 4 -10 6 0 11 -4 11 -10 0 -5 -7 -10 -15 -10 -8
0 -15 9 -15 20 0 11 5 20 11 20 5 0 7 -4 4 -10z m32 -22 c-3 -8 -6 -5 -6 6 -1
11 2 17 5 13 3 -3 4 -12 1 -19z m-96 -2 c-10 -11 -8 -16 8 -21 16 -5 21 -15
21 -41 0 -32 -2 -34 -35 -34 -19 0 -35 2 -35 5 0 2 5 27 11 55 7 34 16 50 26
50 12 0 13 -3 4 -14z m279 -1 c10 -12 10 -15 -3 -15 -8 0 -17 7 -21 15 -3 8
-2 15 3 15 5 0 14 -7 21 -15z m415 -5 c-3 -5 -13 -10 -21 -10 -8 0 -12 5 -9
10 3 6 13 10 21 10 8 0 12 -4 9 -10z m-545 -32 c0 -5 -5 -6 -12 -2 -8 5 -9 2
-5 -10 4 -10 3 -15 -3 -11 -17 10 -12 45 5 39 8 -4 15 -10 15 -16z m270 -17
c0 -6 -4 -13 -10 -16 -5 -3 -10 1 -10 9 0 9 5 16 10 16 6 0 10 -4 10 -9z
m-312 -13 c8 -10 3 -13 -19 -13 -17 0 -29 5 -29 13 0 6 8 12 19 12 10 0 23 -6
29 -12z m-2296 -20 c-6 -6 -15 -8 -19 -4 -4 4 -1 11 7 16 19 12 27 3 12 -12z
m651 8 c12 -8 42 -17 67 -20 79 -11 83 -28 5 -21 -77 8 -105 18 -105 40 0 19
5 19 33 1z m2634 -23 c-20 -2 -52 -2 -70 0 -17 2 0 4 38 4 39 0 53 -2 32 -4z
m96 -25 c60 -40 57 -2 56 -662 0 -372 -4 -602 -9 -589 -7 16 -14 21 -27 16
-35 -12 -40 -22 -34 -61 3 -20 3 -64 0 -97 -3 -33 -7 -49 -8 -35 -4 54 -3 166
2 180 3 8 7 180 10 382 2 203 6 371 10 374 4 4 13 2 20 -5 21 -17 27 34 27
248 0 176 -1 186 -22 208 -27 29 -38 29 -38 1 0 -13 -5 -30 -10 -38 -7 -11
-10 -3 -10 31 0 25 -5 50 -12 57 -21 21 11 14 45 -10z m-3458 -98 c-3 -5 -12
-10 -18 -10 -7 0 -6 4 3 10 19 12 23 12 15 0z m602 4 c-3 -3 -12 -4 -19 -1 -8
3 -5 6 6 6 11 1 17 -2 13 -5z m868 -4 c-3 -5 -10 -10 -16 -10 -5 0 -9 5 -9 10
0 6 7 10 16 10 8 0 12 -4 9 -10z m85 -9 c0 -5 -9 -11 -21 -14 -16 -4 -18 -3
-8 9 13 16 29 19 29 5z m1887 -13 c-3 -8 -6 -5 -6 6 -1 11 2 17 5 13 3 -3 4
-12 1 -19z m-3507 -3 c0 -2 -9 -9 -20 -15 -12 -6 -20 -7 -20 -1 0 5 8 12 18
14 9 3 18 5 20 6 1 0 2 -1 2 -4z m1034 -57 c-5 -8 5 -9 37 -5 25 3 51 2 59 -3
13 -8 12 -10 -2 -10 -10 0 -18 -4 -18 -9 0 -5 -46 -11 -102 -13 -89 -4 -112
-9 -172 -37 -64 -30 -123 -38 -119 -16 1 6 19 15 40 20 21 6 52 17 68 26 17 9
38 15 48 14 11 -2 17 3 17 16 0 18 5 19 65 13 46 -5 65 -3 65 5 0 6 5 11 11
11 5 0 7 -5 3 -12z m2150 -77 c3 -59 -11 -111 -29 -111 -26 0 -34 31 -18 68 8
21 12 48 9 65 -8 37 12 68 27 41 5 -9 10 -37 11 -63z m-1954 59 c0 -5 -4 -10
-10 -10 -5 0 -10 5 -10 10 0 6 5 10 10 10 6 0 10 -4 10 -10z m-1338 -29 c-2
-17 3 -39 12 -53 19 -27 21 -45 3 -30 -7 6 -18 27 -26 47 -10 28 -10 39 -1 50
17 20 17 19 12 -14z m908 20 c0 -13 -26 -21 -65 -21 -39 0 -56 17 -23 23 42 8
88 7 88 -2z m994 -26 c-4 -8 -8 -15 -10 -15 -2 0 -4 7 -4 15 0 8 4 15 10 15 5
0 7 -7 4 -15z m-498 -20 c167 -8 268 -41 340 -110 29 -27 64 -74 78 -102 l26
-53 -55 0 c-30 0 -55 -4 -55 -10 0 -5 -5 -10 -11 -10 -5 0 -7 5 -4 10 4 6 -5
10 -19 10 -20 0 -26 5 -26 23 0 31 15 51 31 42 13 -8 -1 12 -45 63 -14 15 -22
19 -27 10 -4 -6 -1 -17 6 -25 15 -15 10 -43 -9 -43 -19 0 -76 77 -76 103 0 19
-8 28 -31 36 -46 16 -100 14 -93 -3 5 -13 -76 -90 -85 -80 -3 2 13 23 35 45
l39 42 -29 -6 -28 -5 28 24 29 23 -42 1 c-23 0 -54 -5 -70 -11 -39 -16 -182
-17 -187 -2 -3 8 1 10 11 6 11 -4 14 -2 9 5 -9 15 67 33 115 26 15 -1 80 -6
145 -9z m1150 -24 c5 -5 18 -11 29 -13 10 -2 22 -14 26 -28 7 -25 7 -25 8 -2
l1 24 38 -23 c79 -48 92 -68 91 -134 0 -33 -3 -54 -6 -47 -2 6 -11 12 -19 12
-8 0 -14 -6 -15 -12 0 -7 -4 -4 -9 7 -7 17 -9 17 -9 3 -1 -26 -21 -22 -22 5
l-2 22 -4 -22 c-5 -29 -23 -30 -23 -2 0 16 -4 19 -22 14 -13 -4 -28 -13 -34
-21 -15 -18 -22 -18 -26 2 -2 10 -15 18 -30 20 -21 2 -28 -2 -31 -19 -2 -12
-5 -3 -6 19 0 24 -8 47 -17 54 -8 8 -14 9 -13 4 3 -20 -4 -88 -8 -71 -2 9 -11
17 -19 17 -7 0 -16 11 -20 25 -9 35 -20 18 -23 -34 -2 -27 -31 11 -31 40 0 32
-3 34 -31 19 -11 -6 -19 -21 -19 -35 0 -35 -26 -31 -33 5 -9 42 -2 54 57 98
60 46 83 55 163 65 12 1 25 6 29 10 10 9 18 9 30 -2z m-658 -61 c-1 -16 -5
-30 -9 -30 -4 0 -7 14 -7 30 1 17 5 30 9 30 4 0 7 -13 7 -30z m1325 10 c3 -11
1 -18 -3 -15 -5 3 -10 0 -12 -7 -2 -6 -9 -8 -16 -4 -8 5 -6 12 6 26 9 10 18
19 18 19 1 1 4 -8 7 -19z m-3149 -37 l20 -27 -27 20 c-14 10 -28 24 -31 31 -8
20 18 4 38 -24z m3543 0 c-3 -10 -5 -4 -5 12 0 17 2 24 5 18 2 -7 2 -21 0 -30z
m-487 17 c0 -5 -2 -10 -4 -10 -3 0 -8 5 -11 10 -3 6 -1 10 4 10 6 0 11 -4 11
-10z m-1045 -40 c3 -5 -1 -10 -10 -10 -9 0 -13 5 -10 10 3 6 8 10 10 10 2 0 7
-4 10 -10z m1190 -62 c-6 -14 -55 -21 -55 -8 0 10 18 18 42 19 10 1 15 -4 13
-11z m-1420 -94 c16 -10 25 -26 25 -41 0 -26 17 -131 50 -313 11 -58 27 -145
35 -195 18 -99 26 -138 56 -265 31 -132 33 -163 16 -216 -31 -98 -26 -157 14
-169 32 -11 35 -39 13 -184 -3 -24 -2 -52 4 -65 18 -36 60 -180 55 -191 -5
-16 -85 -65 -103 -64 -8 0 4 10 28 22 46 23 50 32 25 59 -13 14 -14 21 -5 30
21 21 13 65 -22 126 l-35 58 11 73 11 73 -38 34 c-21 19 -42 34 -46 34 -4 0
-10 10 -14 23 -4 13 -8 17 -12 10 -2 -7 -9 -13 -14 -13 -18 0 -9 52 22 128 17
43 33 102 36 133 8 81 -14 223 -38 245 -12 11 -19 30 -19 52 0 19 -9 50 -20
68 -17 27 -19 36 -9 52 14 22 1 161 -16 165 -5 1 -15 -38 -21 -87 -7 -49 -16
-91 -21 -95 -4 -3 -19 -33 -32 -66 -13 -33 -29 -73 -36 -90 -7 -16 -16 -37
-19 -45 -13 -33 5 84 20 130 9 28 14 53 12 56 -3 2 -15 -31 -27 -73 -12 -43
-26 -87 -31 -98 -5 -11 -11 -36 -14 -55 -9 -54 -49 -150 -63 -150 -9 0 -8 12
5 48 10 26 24 72 30 102 27 131 41 190 62 260 21 69 24 91 29 190 1 24 4 31
10 21 15 -24 22 6 20 91 -2 109 7 159 29 151 12 -4 11 -1 -3 10 -30 24 -45 20
-46 -10 0 -17 -3 -22 -6 -13 -3 8 -11 18 -16 22 -15 10 33 47 61 48 12 0 34
-7 47 -16z m-128 -125 c-8 -35 -26 -102 -39 -149 -14 -47 -29 -98 -32 -114 -4
-16 -14 -39 -22 -50 -13 -19 -14 -18 -14 18 0 33 -2 37 -15 26 -13 -10 -15 -9
-15 8 0 12 5 24 10 27 6 4 8 15 5 26 -8 23 -2 24 19 4 13 -13 16 -9 27 43 7
31 16 62 19 67 4 6 11 26 15 45 9 46 48 136 52 123 2 -6 -3 -39 -10 -74z m-67
38 c0 -6 -14 -18 -30 -25 -17 -8 -28 -18 -25 -23 4 -5 -2 -6 -11 -2 -11 4 -15
2 -11 -4 4 -6 -3 -19 -15 -29 -20 -18 -21 -18 -15 -1 4 10 7 22 7 26 0 4 15
15 33 26 17 10 38 25 45 32 17 16 22 16 22 0z m400 -107 c-20 -13 -43 -13 -35
0 3 6 16 10 28 10 18 0 19 -2 7 -10z m733 -5 c3 -12 -111 -36 -135 -29 -32 10
-20 33 20 37 60 6 112 2 115 -8z m492 -15 c-3 -5 -15 -10 -26 -10 -11 0 -17 5
-14 10 3 6 15 10 26 10 11 0 17 -4 14 -10z m-745 -4 c0 -3 -4 -8 -10 -11 -5
-3 -10 -1 -10 4 0 6 5 11 10 11 6 0 10 -2 10 -4z m470 -5 c0 -15 -28 -33 -40
-26 -8 5 -8 11 1 21 13 15 39 19 39 5z m87 3 c-3 -3 -12 -4 -19 -1 -8 3 -5 6
6 6 11 1 17 -2 13 -5z m-827 -36 c0 -5 -4 -8 -10 -8 -5 0 -10 10 -10 23 0 18
2 19 10 7 5 -8 10 -18 10 -22z m-60 13 c0 -5 9 -11 20 -14 29 -8 24 -33 -10
-51 -31 -15 -39 -9 -18 12 33 33 -83 -1 -141 -41 -29 -19 -46 -26 -49 -19 -2
7 -10 12 -18 12 -8 0 -14 3 -14 8 0 10 59 42 79 42 27 0 125 37 129 49 4 13
22 15 22 2z m227 -8 c18 -7 19 -11 9 -25 -14 -19 -86 -36 -86 -20 0 6 12 15
28 20 25 10 23 10 -21 11 -41 1 -50 -2 -54 -19 -6 -24 -19 -25 -39 -5 -9 8
-11 15 -5 15 6 0 11 9 11 19 0 18 6 19 68 16 37 -2 77 -7 89 -12z m73 -8 c0
-8 -7 -15 -16 -15 -14 0 -14 3 -4 15 7 8 14 15 16 15 2 0 4 -7 4 -15z m90 5
c0 -5 -5 -10 -11 -10 -6 0 -9 -6 -6 -14 11 -29 -26 -44 -123 -48 -52 -3 -78
-3 -57 -1 20 2 37 8 37 12 0 4 6 8 13 9 61 6 103 10 110 11 5 1 5 6 2 11 -10
16 2 40 20 40 8 0 15 -4 15 -10z m320 -10 c-6 -11 -14 -19 -18 -16 -4 2 -8 -5
-7 -17 2 -137 -43 -378 -81 -437 -12 -19 -25 -52 -28 -74 -14 -88 -68 -128
-81 -60 -3 20 -9 33 -13 30 -3 -4 -19 19 -34 51 -22 46 -26 51 -22 26 9 -50
-10 -39 -25 15 -8 26 -20 52 -29 59 -12 10 -18 6 -33 -25 -11 -20 -19 -48 -19
-62 -1 -32 -35 -74 -55 -66 -14 5 -20 31 -16 64 2 15 -23 42 -38 42 -6 0 -11
-15 -11 -32 0 -46 -20 -15 -20 32 -1 34 -1 35 -14 11 -7 -13 -12 -34 -10 -47
4 -36 -13 -39 -21 -4 -10 44 -22 37 -31 -17 -4 -27 -9 -40 -11 -30 -5 20 -22
23 -28 5 -2 -7 -6 -39 -10 -70 -4 -32 -11 -58 -16 -58 -5 0 -9 9 -9 20 0 27
-17 25 -27 -2 -6 -18 -9 -11 -13 32 l-5 55 -38 1 c-22 1 -43 7 -47 15 -10 15
-12 14 -28 -16 -10 -18 -12 -18 -18 13 -3 17 -13 32 -20 32 -9 0 -14 11 -14
28 0 16 -9 57 -20 91 -12 34 -22 85 -23 114 -2 47 0 52 20 55 13 2 23 -3 25
-12 2 -11 7 -13 18 -6 12 7 13 13 4 28 -11 17 -8 18 47 17 34 -1 59 3 59 9 0
6 5 5 12 -2 15 -15 48 -16 48 -2 0 6 7 10 15 10 8 0 15 5 15 11 0 5 -4 8 -9 5
-4 -3 -22 -1 -40 4 -17 5 -31 5 -31 0 0 -4 -11 -10 -24 -12 -21 -4 -23 -2 -16
16 4 12 15 20 23 20 9 -1 15 3 14 10 -1 7 15 11 41 12 24 1 48 6 55 13 16 16
47 14 47 -4 0 -8 -9 -19 -20 -25 -13 -7 -20 -21 -20 -38 0 -15 4 -22 8 -17 8
11 16 14 77 25 22 5 41 14 44 21 2 7 14 23 27 36 28 28 101 33 110 8 7 -16 44
-21 44 -6 0 5 9 13 20 16 11 3 20 13 20 21 0 8 4 13 9 10 5 -4 7 3 4 14 -4 16
0 20 17 20 16 0 20 -4 16 -15 -4 -11 1 -15 19 -15 14 0 25 4 25 9 0 11 23 20
69 27 20 3 47 13 61 22 34 23 52 30 73 31 15 1 16 -2 7 -19z m400 -12 c-24
-21 -24 -21 -2 -15 17 4 23 0 28 -19 11 -43 -1 -517 -13 -539 -11 -19 -12 -19
-23 10 -7 17 -14 45 -17 64 -4 21 -13 35 -24 38 -12 4 -19 19 -24 54 -4 27
-11 49 -17 49 -5 0 -8 -8 -7 -17 5 -32 -12 -102 -27 -114 -8 -6 -14 -20 -14
-30 0 -9 -6 -24 -14 -31 -7 -8 -17 -24 -21 -37 -6 -18 -9 -21 -16 -10 -5 8 -9
25 -10 39 -1 21 -2 19 -11 -10 -14 -51 -27 -59 -34 -21 -8 38 -22 29 -26 -17
-1 -17 -5 -32 -8 -32 -8 0 -40 113 -40 140 0 12 -7 34 -15 50 -8 16 -16 42
-18 57 -2 15 -9 39 -17 53 -9 17 -14 65 -14 148 -1 112 1 125 19 138 24 18 71
30 150 39 l60 7 -20 -23 c-18 -20 -18 -22 -2 -16 10 4 23 7 28 7 5 0 9 7 9 15
0 9 9 15 25 15 19 0 25 -5 23 -16 -2 -10 4 -19 12 -21 13 -4 13 -3 0 6 -11 8
-11 11 -2 11 7 0 30 11 50 25 45 30 67 33 32 3z m-1110 -78 c0 -5 -4 -10 -10
-10 -5 0 -10 5 -10 10 0 6 5 10 10 10 6 0 10 -4 10 -10z m-160 -50 c-8 -5 -24
-9 -35 -9 l-20 0 20 9 c11 5 27 9 35 9 13 1 13 0 0 -9z m-2080 -309 c0 -4 -26
-11 -57 -14 -83 -7 -160 -45 -210 -102 -24 -27 -43 -46 -43 -43 0 12 29 73 30
63 1 -5 5 0 10 12 12 30 78 62 159 78 80 16 111 18 111 6z m287 3 c-7 -7 -168
-6 -175 1 -3 3 37 5 88 5 51 0 91 -3 87 -6z m146 -21 c-7 -2 -21 -2 -30 0 -10
3 -4 5 12 5 17 0 24 -2 18 -5z m114 -24 c157 -43 275 -129 332 -242 34 -67 65
-169 87 -287 12 -67 41 -207 64 -315 12 -53 12 -85 1 -85 -11 0 -20 24 -37
105 -7 33 -22 103 -33 155 -12 52 -26 123 -31 156 -15 93 -76 272 -106 313
-72 96 -180 164 -307 192 -32 7 -60 16 -63 21 -8 12 9 10 93 -13z m3133 -51
c0 -47 -6 -48 -13 -1 -4 28 -1 43 10 43 2 0 3 -19 3 -42z m-1761 -15 c-1 -21
-4 -49 -8 -63 -7 -22 -9 -19 -16 22 -8 50 -3 78 15 78 5 0 10 -17 9 -37z
m1781 -300 c-11 -17 -11 -17 -6 0 3 10 6 24 7 30 0 9 2 9 5 0 3 -7 0 -20 -6
-30z m65 -53 c-3 -5 -12 -10 -20 -10 -8 0 -17 5 -20 10 -4 6 5 10 20 10 15 0
24 -4 20 -10z m-21 -26 c22 -8 8 -34 -19 -34 -29 0 -43 19 -24 31 17 10 23 11
43 3z m-45 -104 l-33 -59 -18 27 c-10 15 -18 32 -18 39 0 18 50 53 77 53 l24
0 -32 -60z m3 -55 c-2 -14 -11 -25 -19 -25 -14 0 -11 10 10 38 13 17 15 15 9
-13z m-1119 -2 c-7 -2 -19 -2 -25 0 -7 3 -2 5 12 5 14 0 19 -2 13 -5z m1012
-3 c-3 -5 -10 -10 -16 -10 -5 0 -9 5 -9 10 0 6 7 10 16 10 8 0 12 -4 9 -10z
m-1148 -16 c-3 -3 -12 -4 -19 -1 -8 3 -5 6 6 6 11 1 17 -2 13 -5z m218 -14
c27 0 35 -3 25 -9 -8 -5 -46 -5 -85 1 -86 11 -110 20 -35 13 30 -3 73 -5 95
-5z m940 -59 c-8 -17 -21 -33 -27 -37 -8 -5 -7 1 3 16 8 14 19 31 23 38 15 25
16 11 1 -17z m-531 13 c21 -8 20 -20 0 -28 -11 -4 -15 -2 -11 8 4 9 -1 17 -11
19 -9 3 -12 5 -5 6 6 0 18 -2 27 -5z m-2449 -263 c74 -34 105 -85 105 -172 0
-102 -77 -179 -180 -179 -70 0 -133 39 -166 102 -18 35 -18 131 0 166 45 87
153 124 241 83z m416 -2 c27 -14 69 -69 69 -90 0 -16 -7 -19 -49 -19 -31 0
-53 5 -61 15 -7 9 -29 15 -50 15 -49 0 -80 -35 -80 -92 0 -73 78 -114 138 -72
35 24 26 34 -29 34 l-50 0 3 33 3 32 93 3 92 3 0 -50 c0 -65 -14 -94 -63 -128
-34 -24 -50 -28 -107 -28 -54 0 -73 5 -103 25 -54 36 -80 96 -75 171 6 83 53
140 129 159 37 9 114 3 140 -11z m2336 2 c103 -47 134 -194 61 -287 -47 -59
-155 -81 -226 -45 -46 23 -67 46 -87 94 -66 157 95 309 252 238z m-3427 -8
c36 -21 52 -50 53 -96 2 -73 -41 -113 -134 -124 l-49 -6 0 -58 0 -59 -50 0
-50 0 0 180 0 180 101 0 c76 0 108 -4 129 -17z m351 -21 c38 -42 41 -107 6
-144 -13 -14 -30 -27 -37 -30 -10 -3 -5 -21 23 -70 20 -37 37 -69 37 -72 0 -3
-24 -6 -52 -6 l-53 0 -35 65 c-19 36 -38 65 -42 65 -5 0 -8 -29 -8 -65 l0 -65
-50 0 -50 0 0 181 0 181 116 -4 116 -3 29 -33z m1099 23 c35 -18 60 -62 60
-106 0 -22 -10 -41 -36 -67 l-37 -37 37 -67 37 -68 -55 0 -54 0 -39 68 -38 67
-5 -65 -5 -65 -47 -3 -48 -3 0 180 0 181 100 0 c71 0 110 -5 130 -15z m330 12
c0 -2 27 -80 60 -172 33 -92 60 -172 60 -177 0 -4 -22 -8 -49 -8 -45 0 -50 2
-60 30 -10 29 -12 30 -75 30 -62 0 -64 -1 -75 -30 -9 -28 -13 -30 -60 -30 -28
0 -51 2 -51 4 0 3 98 273 119 329 10 25 14 27 71 27 33 0 60 -2 60 -3z m297
-42 c37 -108 66 -176 73 -168 4 4 24 54 45 111 l38 102 63 0 63 0 0 -167 c1
-93 -3 -174 -8 -181 -5 -9 -24 -12 -52 -10 l-44 3 -5 83 -5 83 -30 -85 -29
-86 -41 0 -40 0 -30 87 -30 86 -5 -84 -5 -84 -50 0 -50 0 -3 178 -2 178 66 -3
67 -3 14 -40z m576 3 c9 -24 36 -101 61 -171 25 -70 46 -132 46 -137 0 -6 -22
-10 -49 -10 -45 0 -50 2 -60 30 -10 29 -12 30 -75 30 -63 0 -65 0 -71 -30 -6
-29 -9 -30 -61 -30 -30 0 -54 2 -54 4 0 3 98 273 119 329 10 25 14 27 70 27
l59 0 15 -42z m370 28 c74 -30 118 -123 97 -203 -25 -102 -77 -135 -221 -141
l-96 -4 -6 77 c-4 43 -7 125 -7 182 l0 103 100 0 c62 0 113 -5 133 -14z m808
-24 c45 -50 36 -134 -17 -163 -13 -7 -24 -16 -24 -20 0 -4 16 -35 35 -68 19
-32 35 -62 35 -65 0 -3 -24 -6 -54 -6 l-54 0 -33 65 c-19 36 -37 65 -41 65 -5
0 -8 -29 -8 -65 l0 -65 -50 0 -50 0 0 181 0 181 116 -4 116 -3 29 -33z m-2541
-412 c33 -17 40 -26 40 -50 0 -34 -10 -37 -51 -13 -27 16 -31 16 -64 0 -46
-22 -45 -23 -45 17 0 32 13 43 78 65 1 1 21 -8 42 -19z m23 -114 c50 -18 76
-42 98 -91 24 -51 24 -109 0 -160 -75 -163 -318 -127 -347 51 -12 81 32 158
111 195 47 22 86 23 138 5z m-460 -93 l62 -98 3 98 3 97 49 0 50 0 0 -180 0
-180 -49 0 -48 0 -64 97 -64 97 -3 -97 -3 -97 -49 0 -50 0 0 180 0 180 50 0
50 0 63 -97z m788 -13 c23 -60 45 -108 48 -106 3 2 24 52 46 110 l40 106 62 0
63 0 0 -180 0 -180 -50 0 -50 0 0 92 c0 53 -4 88 -9 83 -5 -6 -21 -47 -36 -93
l-27 -83 -41 3 -42 3 -32 90 -32 90 0 -92 -1 -93 -50 0 -50 0 0 180 0 180 59
0 60 0 42 -110z m593 -58 c33 -92 61 -173 64 -179 3 -9 -10 -13 -47 -13 -49 0
-53 2 -63 30 -10 31 -11 31 -76 28 -61 -3 -67 -5 -72 -28 -5 -22 -12 -25 -58
-28 -29 -2 -52 1 -52 5 0 4 28 86 62 180 l63 173 60 0 60 0 59 -168z m329 154
c97 -40 135 -177 74 -267 -36 -54 -88 -73 -199 -77 l-98 -4 0 181 0 181 95 0
c58 0 108 -5 128 -14z m377 -26 l0 -40 -65 0 -65 0 0 -30 c0 -30 1 -30 55 -30
37 0 55 -4 55 -12 0 -7 3 -23 6 -35 6 -22 4 -23 -55 -23 l-61 0 0 -35 0 -35
65 0 65 0 0 -40 0 -40 -115 0 -115 0 0 180 0 180 115 0 115 0 0 -40z m-1610
-549 c-24 -7 -25 -10 -28 -109 -3 -96 -2 -102 17 -102 11 0 23 -4 26 -10 4 -6
-8 -10 -29 -10 l-36 0 0 120 0 120 38 -1 c32 -1 33 -2 12 -8z m340 -21 c0 -29
2 -31 33 -25 44 9 80 -20 80 -63 0 -48 -20 -65 -70 -59 -24 2 -43 1 -43 -4 0
-5 -9 -9 -20 -9 -11 0 -20 7 -20 15 0 8 5 15 10 15 6 0 10 30 10 70 0 40 -4
70 -10 70 -5 0 -10 5 -10 10 0 6 9 10 20 10 16 0 20 -7 20 -30z m490 -25 c0
-59 7 -66 35 -35 10 11 13 20 7 20 -7 0 -12 5 -12 10 0 6 16 10 35 10 19 0 35
-2 35 -5 0 -3 -15 -18 -32 -34 -32 -29 -33 -29 -14 -50 11 -12 25 -21 33 -21
7 0 13 -7 13 -15 0 -23 -16 -18 -53 15 -19 17 -37 30 -41 30 -13 0 -5 -28 10
-34 23 -9 7 -26 -26 -26 -33 0 -49 17 -26 26 24 9 23 132 -1 150 -16 12 -15
13 10 14 26 0 27 -2 27 -55z m180 -65 l0 -120 -30 0 c-16 0 -30 5 -30 10 0 6
9 10 20 10 19 0 20 7 20 100 0 95 -1 101 -22 110 -21 8 -20 9 10 9 l32 1 0
-120z m-865 45 c42 -41 33 -55 -31 -55 -50 0 -55 -2 -43 -16 10 -12 23 -14 58
-9 43 6 45 5 30 -10 -25 -25 -89 -22 -111 5 -10 12 -18 31 -18 42 0 25 44 68
70 68 12 0 32 -11 45 -25z m439 4 c31 -24 35 -68 9 -92 -55 -48 -138 1 -113
67 18 47 62 58 104 25z m160 0 c15 -11 26 -31 26 -44 0 -61 -84 -92 -122 -45
-25 30 -23 56 7 85 30 30 54 31 89 4z m-464 -49 c0 -5 -18 -10 -40 -10 -22 0
-40 5 -40 10 0 6 18 10 40 10 22 0 40 -4 40 -10z"/>
<path d="M3025 5410 c-3 -5 -1 -10 4 -10 6 0 11 5 11 10 0 6 -2 10 -4 10 -3 0
-8 -4 -11 -10z"/>
<path d="M3922 5194 c-17 -18 -6 -62 11 -45 9 9 8 14 -2 20 -10 7 -10 10 -1
13 7 2 11 9 9 15 -3 7 -8 6 -17 -3z"/>
<path d="M3830 5190 c0 -5 7 -10 16 -10 8 0 12 5 9 10 -3 6 -10 10 -16 10 -5
0 -9 -4 -9 -10z"/>
<path d="M3820 5153 c0 -14 15 -16 45 -4 17 7 15 9 -13 13 -22 3 -32 1 -32 -9z"/>
<path d="M3001 4774 c0 -11 3 -14 6 -6 3 7 2 16 -1 19 -3 4 -6 -2 -5 -13z"/>
<path d="M2960 4765 c-10 -12 -10 -15 4 -15 9 0 16 7 16 15 0 8 -2 15 -4 15
-2 0 -9 -7 -16 -15z"/>
<path d="M3155 4750 c-4 -7 -1 -16 6 -21 17 -10 26 8 11 23 -6 6 -12 6 -17 -2z"/>
<path d="M3202 4744 c-11 -12 -11 -17 1 -28 12 -12 14 -10 15 15 1 33 1 33
-16 13z"/>
<path d="M3040 4643 c0 -4 14 -24 30 -43 32 -39 38 -31 11 14 -16 29 -41 46
-41 29z"/>
<path d="M3087 4643 c-3 -5 -2 -15 2 -22 7 -10 10 -10 16 -1 4 6 3 16 -3 22
-5 5 -12 6 -15 1z"/>
<path d="M2753 4397 c-1 -11 -1 -18 0 -16 2 2 8 11 15 20 9 12 9 16 -1 16 -7
0 -14 -9 -14 -20z"/>
<path d="M2798 4394 c-10 -21 -9 -27 3 -35 8 -5 18 -7 23 -6 17 5 29 34 23 51
-10 24 -36 19 -49 -10z"/>
<path d="M2740 4331 c0 -5 7 -12 16 -15 24 -9 27 -7 10 9 -17 17 -26 19 -26 6z"/>
<path d="M2821 4314 c0 -11 3 -14 6 -6 3 7 2 16 -1 19 -3 4 -6 -2 -5 -13z"/>
<path d="M2846 4317 c3 -10 9 -15 12 -12 3 3 0 11 -7 18 -10 9 -11 8 -5 -6z"/>
<path d="M2960 4220 c0 -5 4 -10 9 -10 6 0 13 5 16 10 3 6 -1 10 -9 10 -9 0
-16 -4 -16 -10z"/>
<path d="M2990 4949 c0 -5 5 -7 10 -4 6 3 10 8 10 11 0 2 -4 4 -10 4 -5 0 -10
-5 -10 -11z"/>
<path d="M3900 4860 c0 -5 5 -10 11 -10 5 0 7 5 4 10 -3 6 -8 10 -11 10 -2 0
-4 -4 -4 -10z"/>
<path d="M3798 4853 c-16 -4 -16 -6 -3 -20 19 -18 47 -10 39 12 -6 16 -7 16
-36 8z"/>
<path d="M3999 4369 c-8 -17 -8 -20 2 -17 7 2 13 12 15 21 3 23 -3 21 -17 -4z"/>
<path d="M4091 4294 c0 -11 3 -14 6 -6 3 7 2 16 -1 19 -3 4 -6 -2 -5 -13z"/>
<path d="M3990 4260 c0 -5 5 -10 10 -10 6 0 10 5 10 10 0 6 -4 10 -10 10 -5 0
-10 -4 -10 -10z"/>
<path d="M4100 4150 c0 -5 5 -10 10 -10 6 0 10 -7 10 -15 0 -16 20 -16 32 0
16 21 7 35 -22 35 -16 0 -30 -4 -30 -10z"/>
<path d="M4082 4129 c2 -7 10 -15 17 -17 8 -3 12 1 9 9 -2 7 -10 15 -17 17 -8
3 -12 -1 -9 -9z"/>
<path d="M4120 4089 c0 -5 5 -7 10 -4 6 3 10 8 10 11 0 2 -4 4 -10 4 -5 0 -10
-5 -10 -11z"/>
<path d="M2742 3870 c0 -14 2 -19 5 -12 2 6 2 18 0 25 -3 6 -5 1 -5 -13z"/>
<path d="M3680 4004 c0 -15 26 -19 34 -5 3 5 -3 11 -14 14 -13 3 -20 0 -20 -9z"/>
<path d="M3877 3526 c-4 -10 -1 -13 9 -9 15 6 19 23 5 23 -5 0 -11 -7 -14 -14z"/>
<path d="M4191 3489 c-13 -5 -22 -12 -19 -14 6 -6 58 12 58 20 0 7 -11 5 -39
-6z"/>
<path d="M1505 2028 c-33 -18 -45 -40 -45 -84 0 -60 26 -89 80 -89 53 0 80 30
80 85 0 52 -8 68 -41 85 -33 18 -47 18 -74 3z"/>
<path d="M4253 2029 c-31 -11 -46 -38 -47 -84 -1 -57 27 -89 79 -89 52 0 80
32 79 89 -1 27 -8 53 -18 64 -19 21 -64 31 -93 20z"/>
<path d="M810 2005 c0 -41 19 -53 56 -36 20 9 25 17 22 39 -3 23 -8 27 -40 30
-37 3 -38 3 -38 -33z"/>
<path d="M1130 2005 c0 -41 18 -53 59 -39 52 19 34 74 -25 74 -32 0 -34 -2
-34 -35z"/>
<path d="M2260 2000 c0 -38 2 -40 29 -40 26 0 61 21 61 36 0 25 -25 44 -55 44
-34 0 -35 -1 -35 -40z"/>
<path d="M2636 1953 c-9 -26 -16 -48 -16 -50 0 -2 16 -3 36 -3 33 0 36 2 30
25 -9 35 -25 75 -30 75 -2 0 -11 -21 -20 -47z"/>
<path d="M3498 1950 l-16 -50 35 0 c32 0 35 2 29 25 -8 32 -25 75 -29 75 -2 0
-10 -22 -19 -50z"/>
<path d="M3840 1946 l0 -96 25 0 c33 0 81 25 89 45 3 9 6 33 6 54 0 46 -29 76
-82 86 l-38 7 0 -96z"/>
<path d="M4610 2005 c0 -41 18 -53 59 -39 52 19 34 74 -25 74 -32 0 -34 -2
-34 -35z"/>
<path d="M2123 1444 c-26 -40 -20 -104 12 -131 36 -31 71 -29 106 6 36 36 39
86 8 125 -17 21 -29 26 -64 26 -37 0 -47 -4 -62 -26z"/>
<path d="M3036 1401 c-9 -30 -16 -56 -16 -58 0 -2 16 -3 36 -3 39 0 38 -4 9
80 l-12 35 -17 -54z"/>
<path d="M3380 1384 l0 -97 41 6 c55 7 80 33 81 84 1 55 -16 80 -60 93 -63 17
-62 19 -62 -86z"/>
<path d="M2624 886 c-3 -8 -4 -25 -2 -38 2 -18 9 -23 32 -23 36 0 56 27 40 53
-14 22 -62 28 -70 8z"/>
<path d="M2344 893 c-17 -17 -16 -18 20 -21 46 -4 58 5 32 24 -25 18 -31 18
-52 -3z"/>
<path d="M2781 886 c-16 -19 -11 -46 12 -60 25 -16 52 4 52 40 0 24 -5 30 -26
32 -14 2 -31 -4 -38 -12z"/>
<path d="M2940 885 c-26 -32 13 -81 48 -59 34 22 22 74 -18 74 -10 0 -23 -7
-30 -15z"/>
</g>
</svg>
