<?xml version="1.0" standalone="no"?>
<!DOCTYPE svg PUBLIC "-//W3C//DTD SVG 20010904//EN"
 "http://www.w3.org/TR/2001/REC-SVG-20010904/DTD/svg10.dtd">
<svg version="1.0" xmlns="http://www.w3.org/2000/svg"
 width="292.000000pt" height="292.000000pt" viewBox="0 0 292.000000 292.000000"
 preserveAspectRatio="xMidYMid meet">

<g transform="translate(0.000000,292.000000) scale(0.100000,-0.100000)"
fill="#000000" stroke="none">
<path d="M660 2690 c-24 -24 -25 -48 -4 -78 18 -26 65 -30 88 -6 24 23 20 70
-6 88 -30 21 -54 20 -78 -4z m70 -15 c7 -8 10 -25 6 -40 -8 -31 -50 -35 -66
-6 -13 25 -13 27 6 45 19 20 38 20 54 1z"/>
<path d="M1040 2700 c0 -5 5 -10 10 -10 6 0 10 5 10 10 0 6 -4 10 -10 10 -5 0
-10 -4 -10 -10z"/>
<path d="M1623 2689 c5 -17 2 -20 -14 -16 -21 6 -49 -16 -49 -38 0 -33 13 -45
50 -45 37 0 38 1 34 33 -1 17 -3 44 -3 60 -1 15 -6 27 -12 27 -7 0 -9 -9 -6
-21z m-5 -65 c-4 -25 -32 -24 -36 0 -4 21 18 40 31 27 5 -5 7 -17 5 -27z"/>
<path d="M885 2670 c-3 -5 -4 -14 -1 -19 9 -14 -4 -41 -20 -41 -9 0 -14 11
-14 30 0 20 -5 30 -15 30 -15 0 -14 -18 0 -67 2 -7 21 -12 44 -11 27 0 38 4
34 11 -4 6 -6 24 -5 39 2 28 -12 46 -23 28z"/>
<path d="M955 2672 c-29 -3 -30 -5 -27 -42 5 -47 17 -52 26 -10 3 18 12 30 21
30 10 0 15 -10 15 -30 0 -21 5 -30 16 -30 11 0 14 5 10 16 -3 9 -6 26 -6 39 0
26 -12 32 -55 27z"/>
<path d="M1192 2664 c-24 -17 -28 -44 -10 -62 14 -14 68 -16 68 -2 0 5 -10 9
-21 7 -12 -1 -24 4 -26 11 -3 7 -1 12 4 11 42 -7 60 21 25 40 -14 7 -25 6 -40
-5z m33 -14 c3 -5 -1 -10 -9 -10 -9 0 -16 5 -16 10 0 6 4 10 9 10 6 0 13 -4
16 -10z"/>
<path d="M1345 2663 c-16 -16 -16 -17 1 -30 10 -7 21 -13 26 -13 4 0 8 -5 8
-10 0 -6 -11 -8 -26 -4 -19 5 -25 4 -20 -5 9 -14 53 -14 62 1 4 6 -2 19 -14
29 -27 22 -28 29 -2 22 25 -7 26 3 1 17 -15 8 -24 6 -36 -7z"/>
<path d="M1688 2672 c-10 -2 -18 -8 -18 -13 0 -6 9 -8 19 -4 11 3 22 1 26 -5
3 -5 -3 -10 -14 -10 -21 0 -46 -32 -34 -44 12 -12 83 -7 79 7 -3 6 -7 24 -10
38 -6 29 -20 38 -48 31z m21 -63 c-16 -10 -23 -4 -14 10 3 6 11 8 17 5 6 -4 5
-9 -3 -15z"/>
<path d="M1034 2654 c3 -9 6 -27 6 -40 0 -13 6 -24 13 -24 9 0 11 12 9 40 -3
27 -9 40 -19 40 -10 0 -13 -6 -9 -16z"/>
<path d="M1080 2665 c0 -3 7 -21 14 -40 17 -41 41 -46 50 -11 3 13 9 31 12 40
3 9 2 16 -4 16 -6 0 -15 -12 -20 -27 l-10 -28 -11 28 c-9 23 -31 38 -31 22z"/>
<path d="M1268 2629 c4 -39 22 -56 22 -20 0 11 7 26 15 35 21 20 19 23 -13 24
-26 0 -27 -1 -24 -39z"/>
<path d="M1421 2656 c-28 -34 6 -74 53 -62 24 6 27 11 24 39 -3 28 -7 32 -34
35 -18 2 -36 -3 -43 -12z m57 -22 c2 -12 -4 -24 -12 -27 -19 -7 -40 18 -32 39
8 22 40 13 44 -12z"/>
<path d="M1710 2526 c0 -10 17 -12 63 -7 4 1 7 5 7 9 0 4 -16 8 -35 9 -21 1
-35 -4 -35 -11z"/>
<path d="M644 2483 c4 -8 6 -39 6 -69 0 -41 4 -54 15 -54 8 0 15 9 15 20 0 15
7 20 29 20 30 0 41 14 41 55 0 31 -18 43 -68 42 -33 0 -42 -3 -38 -14z m81
-33 c0 -18 -6 -26 -22 -28 -18 -3 -23 1 -23 21 0 28 9 39 30 35 9 -2 15 -14
15 -28z"/>
<path d="M774 2483 c3 -8 6 -30 6 -49 0 -19 5 -34 10 -34 6 0 10 13 10 30 0
19 7 34 20 42 29 18 25 24 -16 25 -27 1 -34 -2 -30 -14z"/>
<path d="M868 2489 c-21 -12 -24 -59 -6 -77 17 -17 64 -15 82 4 45 45 -19 107
-76 73z m57 -39 c0 -16 -6 -26 -19 -28 -25 -5 -39 12 -31 38 10 31 50 24 50
-10z"/>
<path d="M979 2479 c-23 -44 22 -98 62 -74 7 5 10 3 7 -6 -3 -8 -13 -15 -24
-17 -43 -7 -50 -14 -25 -23 41 -16 71 12 71 65 0 25 3 51 6 59 4 11 -5 15 -40
15 -36 1 -48 -3 -57 -19z m65 -14 c8 -21 -3 -45 -20 -45 -8 0 -17 7 -20 15 -8
21 2 45 20 45 7 0 16 -7 20 -15z"/>
<path d="M1090 2490 c0 -5 5 -12 10 -15 6 -3 10 -22 10 -41 0 -19 5 -34 10
-34 6 0 10 13 10 30 0 19 7 34 20 42 30 19 25 26 -20 26 -22 0 -40 -3 -40 -8z"/>
<path d="M1187 2493 c-15 -14 -6 -23 18 -17 15 4 25 2 25 -4 0 -6 -10 -12 -21
-14 -12 -2 -27 -11 -33 -21 -9 -14 -7 -21 8 -32 12 -9 25 -11 34 -6 8 5 23 6
33 4 15 -4 17 0 12 39 -3 23 -11 46 -17 50 -14 10 -50 10 -59 1z m48 -63 c-3
-5 -13 -10 -21 -10 -8 0 -14 5 -14 10 0 6 9 10 21 10 11 0 17 -4 14 -10z"/>
<path d="M1280 2490 c0 -4 3 -10 7 -14 4 -4 6 -23 4 -42 -2 -26 1 -34 13 -34
11 0 16 9 16 28 0 27 15 52 32 52 4 0 8 -18 8 -40 0 -29 4 -40 15 -40 10 0 15
10 15 34 0 38 17 57 31 35 5 -8 9 -26 9 -41 0 -17 5 -28 14 -28 11 0 13 10 9
43 -3 23 -8 44 -10 47 -7 8 -163 8 -163 0z"/>
<path d="M1487 2494 c-16 -16 -5 -25 23 -19 19 4 30 3 30 -4 0 -6 -7 -11 -16
-11 -30 0 -52 -19 -47 -40 4 -17 14 -20 55 -20 39 0 48 3 40 13 -6 6 -12 28
-14 47 -3 31 -7 35 -33 38 -17 2 -34 0 -38 -4z m48 -64 c-3 -5 -13 -10 -21
-10 -8 0 -14 5 -14 10 0 6 9 10 21 10 11 0 17 -4 14 -10z"/>
<path d="M1602 2488 c-20 -20 -14 -60 15 -90 15 -15 21 -28 14 -28 -7 0 -10
-4 -6 -10 10 -16 36 1 30 20 -3 11 0 20 10 24 26 10 17 23 -14 18 -30 -4 -45
15 -34 44 4 12 14 14 35 10 21 -4 28 -2 26 7 -6 17 -60 21 -76 5z"/>
<path d="M1707 2494 c-16 -16 -5 -25 23 -19 17 4 30 2 30 -3 0 -5 -14 -12 -31
-16 -25 -5 -30 -10 -27 -28 3 -20 10 -23 49 -26 l46 -3 -12 48 c-11 42 -15 48
-41 51 -17 2 -33 0 -37 -4z m48 -64 c-3 -5 -13 -10 -21 -10 -8 0 -14 5 -14 10
0 6 9 10 21 10 11 0 17 -4 14 -10z"/>
<path d="M1826 2487 c-25 -19 -18 -68 13 -83 32 -16 64 -3 75 29 18 49 -43 87
-88 54z m59 -37 c0 -16 -6 -26 -19 -28 -25 -5 -39 12 -31 38 10 31 50 24 50
-10z"/>
<path d="M1470 1963 c-29 -11 -50 -37 -60 -75 -9 -31 -15 -38 -35 -38 -14 0
-25 -4 -25 -10 0 -5 -7 -10 -15 -10 -8 0 -15 -4 -15 -10 0 -5 5 -10 12 -10 15
0 120 -81 114 -88 -3 -2 -17 3 -30 12 -14 9 -37 16 -52 16 -21 0 -25 -4 -21
-20 6 -22 -8 -28 -16 -7 -4 10 -6 10 -6 0 -1 -8 -14 -13 -31 -13 -29 0 -70
-35 -108 -92 -8 -13 7 1 32 30 51 55 75 63 114 36 37 -26 35 -32 -72 -176 -27
-38 -55 -68 -61 -68 -12 0 -66 -79 -78 -113 -6 -16 -12 -13 -57 20 -27 20 -50
43 -50 50 0 7 -4 13 -10 13 -19 0 -10 27 20 55 17 16 30 34 30 41 0 6 34 49
75 95 41 45 75 89 75 96 0 19 50 84 60 78 4 -3 14 3 21 13 13 15 12 16 -3 3
-11 -8 -18 -9 -18 -3 0 6 10 18 23 27 l22 17 -23 -7 c-16 -5 -30 -1 -42 10
-10 9 -25 15 -32 12 -9 -4 -8 -6 3 -6 19 -1 48 -31 31 -31 -6 0 -14 5 -17 10
-9 15 -65 12 -65 -3 0 -18 -35 -49 -44 -40 -4 4 -2 -6 3 -22 10 -27 10 -28 -3
-12 -14 18 -14 18 -21 -2 -3 -12 -3 -31 1 -43 7 -22 7 -21 34 11 20 23 32 31
43 25 12 -8 11 -12 -6 -29 -20 -20 -20 -20 -8 3 18 35 -1 26 -28 -13 -13 -19
-27 -32 -31 -30 -12 7 -50 -44 -44 -59 3 -7 -4 -21 -16 -31 -18 -16 -18 -20
-6 -34 13 -14 10 -22 -21 -63 -20 -27 -43 -48 -53 -48 -24 0 -33 -15 -25 -41
6 -18 12 -20 41 -14 30 5 34 3 34 -15 0 -12 -10 -25 -25 -32 -14 -6 -25 -15
-25 -20 0 -5 13 -2 30 7 16 8 31 15 33 15 13 0 14 -48 2 -78 -14 -33 -13 -52
5 -52 4 0 13 17 19 38 9 30 10 31 6 6 -2 -16 -5 -36 -7 -43 -2 -8 3 -16 10
-18 7 -3 12 4 12 20 0 45 12 86 28 92 23 9 25 0 8 -34 -20 -38 -20 -88 -1
-135 8 -20 13 -36 9 -36 -8 0 18 -24 41 -38 16 -10 7 -11 -50 -6 -81 7 -120
23 -65 25 19 1 27 3 17 6 -23 6 -67 -5 -67 -16 0 -20 121 -32 318 -32 50 1 92
-3 92 -8 0 -26 -281 -20 -370 8 -23 8 -25 6 -26 -26 0 -29 1 -32 10 -16 6 10
22 18 36 18 37 0 160 -28 160 -36 0 -4 9 -5 20 -2 17 5 20 0 20 -26 0 -18 -4
-30 -8 -27 -4 2 -8 -7 -7 -21 0 -14 -6 -28 -14 -31 -8 -2 -11 0 -7 6 3 5 -2 9
-11 8 -11 -1 -20 9 -25 29 -6 26 -7 25 -3 -8 2 -24 0 -35 -7 -31 -6 4 -6 -2 1
-15 9 -15 21 -21 46 -21 49 0 75 31 75 89 l0 46 45 2 c50 2 57 -10 25 -45 -11
-11 -17 -28 -14 -36 4 -9 0 -18 -9 -22 -8 -3 -14 -13 -12 -22 1 -9 -10 -25
-24 -34 -14 -10 -22 -18 -17 -18 5 0 1 -9 -9 -20 -10 -11 -20 -18 -24 -16 -8
5 -11 -88 -3 -94 29 -21 36 -80 9 -63 -18 11 -38 12 -31 2 3 -5 1 -9 -5 -9 -5
0 -11 6 -14 12 -3 10 -7 10 -17 1 -7 -6 -10 -19 -6 -28 5 -14 9 -15 21 -5 12
10 18 10 29 1 10 -9 16 -9 21 -1 4 7 11 8 18 2 7 -6 21 -12 32 -15 15 -4 13
-5 -7 -6 -16 -1 -28 4 -28 12 0 8 -3 8 -9 -2 -8 -13 -83 -12 -186 4 -11 1 -25
3 -32 4 -17 1 -4 32 20 50 39 28 48 73 41 204 -4 71 -13 133 -21 150 -15 30
-33 36 -28 10 1 -10 7 -17 13 -16 6 2 13 -12 16 -30 8 -48 12 -206 5 -202 -3
2 -3 -9 -1 -26 5 -33 -20 -79 -43 -79 -8 0 -15 5 -15 10 0 6 -3 10 -7 10 -5 0
-8 -22 -8 -49 0 -27 3 -53 8 -57 4 -4 7 -3 7 3 0 6 17 7 47 2 27 -4 110 -8
186 -8 84 -1 137 -5 137 -11 0 -11 71 -12 109 -1 13 3 28 16 32 29 7 18 5 22
-11 22 -33 0 -23 17 10 18 17 0 28 -4 25 -9 -4 -5 -2 -9 4 -9 18 0 25 51 11
74 -31 49 -39 74 -35 115 5 50 41 108 90 143 45 32 116 113 107 123 -4 5 -2 5
5 1 14 -8 43 42 43 72 0 19 2 19 43 6 23 -8 52 -20 65 -26 52 -27 113 35 116
117 1 25 12 55 29 80 15 22 27 43 27 47 0 5 -15 8 -32 8 -24 0 -42 -9 -67 -35
-19 -19 -43 -35 -53 -35 -11 0 -28 -10 -38 -22 -18 -22 -18 -22 -59 -4 -48 22
-67 41 -51 51 13 8 13 25 0 25 -6 0 -15 -12 -20 -26 -6 -14 -14 -22 -20 -19
-7 4 -7 12 0 25 6 11 6 21 1 24 -5 3 -12 -1 -15 -10 -3 -8 -11 -12 -17 -8 -9
5 -7 11 6 20 10 7 23 10 28 7 24 -15 60 -8 78 15 49 63 42 180 -13 211 -16 9
-28 19 -28 23 0 9 42 23 60 19 8 -2 -1 11 -19 28 -33 31 -33 32 -15 52 10 11
27 18 38 17 16 -2 20 2 19 20 -2 17 2 22 22 22 26 0 29 -10 16 -44 -5 -14 -10
-16 -15 -8 -14 23 -25 1 -14 -29 8 -25 8 -33 -3 -40 -11 -6 -11 -11 -2 -20 10
-10 14 -9 18 4 3 9 8 25 12 35 3 9 7 22 8 27 5 36 19 65 31 65 16 0 17 5 5 47
-8 26 -6 35 13 52 14 13 29 19 40 15 12 -5 15 -2 10 10 -4 11 2 19 20 26 15 5
26 17 25 27 0 11 -3 13 -6 6 -2 -7 -9 -13 -15 -13 -6 0 -8 7 -4 15 3 8 3 15 0
15 -2 0 -9 -12 -14 -26 -8 -19 -15 -24 -30 -19 -15 5 -18 3 -14 -9 3 -8 -4
-24 -15 -35 l-21 -21 -56 30 c-60 32 -136 40 -175 19 -17 -8 -25 -5 -48 20
-16 17 -34 31 -41 31 -7 0 -25 11 -42 25 -28 24 -56 30 -88 18z m41 -12 c-11
-7 -10 -11 5 -19 16 -9 14 -11 -13 -26 -17 -8 -41 -28 -53 -43 l-22 -28 5 47
c5 50 13 68 28 68 6 0 3 -7 -5 -16 -22 -22 -20 -24 9 -11 14 7 25 18 25 25 0
6 8 12 18 12 13 0 14 -2 3 -9z m39 -69 c0 -8 -43 -32 -57 -32 -3 0 2 9 12 20
18 20 45 27 45 12z m64 -28 c5 -14 4 -15 -9 -4 -17 14 -19 20 -6 20 5 0 12 -7
15 -16z m266 -29 c39 -37 38 -51 -5 -59 -19 -4 -58 -18 -87 -31 -46 -21 -54
-23 -68 -10 -20 19 -41 19 -64 2 -26 -19 -23 -61 8 -97 14 -17 26 -37 26 -43
0 -15 -45 47 -77 106 -14 26 -30 47 -35 47 -18 0 -6 17 25 35 17 11 34 20 37
20 3 0 15 6 28 13 17 10 21 19 17 33 -7 20 -4 21 79 17 79 -4 89 -7 116 -33z
m-474 7 c6 -4 14 -22 17 -40 l7 -34 -40 32 c-22 18 -38 36 -34 41 6 11 35 12
50 1z m264 -6 c0 -2 -7 -7 -16 -10 -8 -3 -12 -2 -9 4 6 10 25 14 25 6z m-440
-21 c21 -25 3 -29 -26 -6 -24 19 -25 21 -7 21 11 0 26 -7 33 -15z m333 -29
c-4 -49 -10 -56 -53 -56 -39 0 -40 1 -34 28 8 34 41 64 68 60 16 -2 21 -9 19
-32z m-355 -9 c15 -18 1 -39 -18 -27 -8 6 -26 10 -40 10 -24 1 -24 1 -6 15 24
18 50 19 64 2z m607 -59 c-34 -18 -45 -38 -34 -60 15 -27 3 -35 -20 -14 -25
23 -45 13 -31 -15 6 -11 8 -24 5 -29 -3 -6 1 -7 9 -4 9 3 16 1 16 -6 0 -28
-35 -3 -41 30 -6 28 -3 39 14 58 12 13 21 26 19 29 -2 2 0 8 4 11 4 4 4 1 0
-5 -9 -17 3 -16 34 2 14 8 30 14 35 14 6 0 1 -5 -10 -11z m-115 -24 c0 -16
-16 -19 -25 -4 -8 13 4 32 16 25 5 -4 9 -13 9 -21z m-310 6 c12 -7 12 -12 -4
-29 l-19 -21 -13 26 c-8 15 -14 28 -14 30 0 8 35 4 50 -6z m163 -7 c-7 -2 -19
-2 -25 0 -7 3 -2 5 12 5 14 0 19 -2 13 -5z m-403 -12 c0 -6 -9 -16 -20 -24
-11 -8 -17 -17 -12 -22 4 -5 2 -5 -5 -1 -7 3 -14 -2 -18 -14 -3 -11 -10 -20
-15 -20 -5 0 -6 7 -3 17 5 11 3 14 -6 8 -10 -6 -11 -3 -2 13 6 12 17 24 24 28
9 5 9 4 0 -7 -24 -25 -13 -30 17 -8 16 12 27 26 24 31 -3 4 0 8 5 8 6 0 11 -4
11 -9z m400 -16 c-7 -8 -20 -15 -29 -14 -12 0 -11 2 4 8 19 8 18 9 -5 13 -21
4 -19 6 9 7 29 1 32 -1 21 -14z m-126 -30 l-29 -26 30 17 30 18 -30 -35 c-16
-18 -31 -35 -31 -37 -1 -2 -1 11 0 28 1 20 10 38 26 50 35 27 38 16 4 -15z
m156 1 c0 -2 -15 -6 -34 -8 -19 -2 -32 0 -30 4 5 8 64 12 64 4z m-220 -26 c-6
-11 -13 -20 -16 -20 -2 0 0 9 6 20 6 11 13 20 16 20 2 0 0 -9 -6 -20z m120 5
c0 -2 -13 -11 -30 -20 -16 -9 -30 -20 -30 -25 0 -5 23 2 51 17 58 28 129 42
129 24 0 -6 -16 -11 -35 -11 -35 0 -105 -29 -136 -57 -14 -12 -17 -12 -23 2
-4 11 5 27 23 46 26 26 51 38 51 24z m-419 -38 c-6 -8 -7 -18 -3 -22 4 -5 1
-5 -6 -1 -10 6 -10 11 -1 22 6 8 14 14 16 14 3 0 0 -6 -6 -13z m559 9 c0 -19
-14 -34 -28 -29 -10 4 -8 -1 6 -15 13 -13 22 -33 21 -50 -1 -15 8 -45 20 -66
19 -37 20 -56 1 -56 -13 0 -51 125 -44 146 5 16 4 16 -5 4 -9 -13 -11 -13 -11
2 0 9 -3 23 -6 32 -4 12 0 16 17 17 17 1 14 4 -11 9 l-35 7 38 2 c20 0 37 -1
37 -3z m-101 -39 l-27 -12 22 -45 c24 -51 56 -130 52 -130 -2 0 -22 27 -45 60
-40 57 -62 72 -76 50 -13 -20 -25 -9 -23 20 1 17 11 38 22 48 20 16 20 16 7 0
-17 -23 -14 -22 34 2 22 11 44 20 50 19 5 0 -2 -6 -16 -12z m160 9 c-2 -2 -15
-9 -29 -15 -24 -11 -24 -11 -6 3 16 13 49 24 35 12z m-124 -25 c-3 -6 -14 -11
-23 -11 -15 1 -15 2 2 15 21 16 32 13 21 -4z m142 -9 c7 -4 8 -13 4 -20 -6 -9
-12 -7 -26 8 -14 15 -15 20 -4 20 8 0 19 -4 26 -8z m-141 -17 c-11 -8 -22 -12
-25 -9 -6 6 19 24 34 24 6 -1 1 -7 -9 -15z m99 -3 c-3 -3 -11 0 -18 7 -9 10
-8 11 6 5 10 -3 15 -9 12 -12z m-280 -12 c10 -11 16 -20 13 -20 -3 0 -13 9
-23 20 -10 11 -16 20 -13 20 3 0 13 -9 23 -20z m205 1 c0 -5 -7 -12 -16 -15
-24 -9 -28 -7 -14 9 14 17 30 20 30 6z m-229 -18 c13 -16 12 -17 -3 -4 -10 7
-18 15 -18 17 0 8 8 3 21 -13z m359 3 c14 -2 29 -4 33 -5 5 0 -6 -18 -25 -40
-35 -41 -51 -47 -55 -20 -4 28 -30 69 -38 61 -5 -4 -5 -1 0 6 5 9 16 12 34 7
14 -3 37 -8 51 -9z m-460 -27 c-12 -16 -25 -28 -28 -25 -5 6 36 56 45 56 3 0
-5 -14 -17 -31z m329 0 c-16 -10 -23 -4 -14 10 3 6 11 8 17 5 6 -4 5 -9 -3
-15z m256 11 c3 -5 2 -10 -4 -10 -5 0 -13 5 -16 10 -3 6 -2 10 4 10 5 0 13 -4
16 -10z m-444 -17 c13 -16 12 -17 -3 -4 -10 7 -18 15 -18 17 0 8 8 3 21 -13z
m-90 -10 c13 -17 13 -17 -6 -3 -11 8 -22 16 -24 17 -2 2 0 3 6 3 6 0 17 -8 24
-17z m34 -3 c10 -11 16 -20 13 -20 -3 0 -13 9 -23 20 -10 11 -16 20 -13 20 3
0 13 -9 23 -20z m260 0 c-3 -5 -14 -10 -23 -10 -15 0 -15 2 -2 10 20 13 33 13
25 0z m-614 -15 c0 -5 -9 -11 -21 -13 -20 -3 -27 8 -13 22 10 9 34 3 34 -9z
m425 -32 c-32 -34 -34 -22 -4 20 12 17 24 25 26 19 2 -6 -8 -24 -22 -39z
m-145 12 c16 -9 27 -20 24 -25 -3 -6 0 -7 7 -5 24 10 47 -17 37 -43 -7 -18
-14 -22 -30 -17 -16 5 -19 4 -14 -5 5 -8 4 -11 -3 -6 -6 4 -9 13 -6 21 4 8 11
12 16 9 6 -4 9 -1 6 7 -5 16 -62 33 -66 19 -5 -15 -19 -12 -26 6 -6 15 9 54
20 54 3 0 18 -7 35 -15z m336 9 c-3 -3 -12 -4 -19 -1 -8 3 -5 6 6 6 11 1 17
-2 13 -5z m-153 -84 c-20 -14 -30 -15 -39 -7 -10 10 -8 15 12 25 14 8 23 16
20 19 -3 2 -18 -2 -35 -11 -28 -15 -42 -13 -42 6 0 5 6 8 13 6 22 -4 57 13 51
25 -3 7 6 -1 21 -17 l26 -29 -27 -17z m163 64 c-3 -3 -12 -4 -19 -1 -8 3 -5 6
6 6 11 1 17 -2 13 -5z m106 -1 c8 -7 -21 -43 -35 -43 -12 0 -10 24 4 38 14 14
22 15 31 5z m-495 -64 c52 -33 45 -40 -8 -8 -37 23 -50 37 -49 54 0 6 3 4 6
-3 3 -8 26 -27 51 -43z m397 41 c-3 -5 -10 -10 -16 -10 -5 0 -9 5 -9 10 0 6 7
10 16 10 8 0 12 -4 9 -10z m-71 -75 l16 -25 -60 0 c-33 0 -60 3 -60 8 0 8 58
38 76 41 7 0 19 -10 28 -24z m156 -15 c6 -11 8 -20 6 -20 -3 0 -10 9 -16 20
-6 11 -8 20 -6 20 3 0 10 -9 16 -20z m-560 -9 c0 -5 -7 -14 -15 -21 -12 -10
-15 -10 -15 2 0 8 3 18 7 21 9 10 23 9 23 -2z m662 -32 c-12 -11 -19 -13 -24
-5 -5 6 -8 0 -9 -14 -1 -24 -1 -23 -10 5 -14 45 -6 56 30 42 28 -10 29 -12 13
-28z m122 26 c-7 -16 -24 -21 -24 -6 0 8 7 13 27 20 1 1 0 -6 -3 -14z m-277
-17 c-3 -8 -6 -5 -6 6 -1 11 2 17 5 13 3 -3 4 -12 1 -19z m42 -23 c0 -5 -4 -3
-9 5 -5 8 -9 22 -9 30 0 16 17 -16 18 -35z m-212 21 c3 -3 -4 -6 -16 -6 -12 0
-20 -4 -17 -8 2 -4 -5 -9 -16 -9 -19 -2 -19 -1 -3 10 14 11 12 13 -17 12 -19
-1 -38 -4 -44 -7 -5 -3 -15 0 -22 8 -10 11 0 13 58 10 39 -2 74 -6 77 -10z
m-244 -3 c-7 -2 -13 -9 -13 -14 0 -6 9 -5 21 2 15 8 24 8 28 0 13 -20 78 -40
139 -43 36 -2 60 -7 58 -13 -8 -23 -267 12 -294 39 -13 13 -11 16 19 24 36 11
63 14 42 5z m167 -13 c0 -5 -8 -10 -17 -10 -15 0 -16 2 -3 10 19 12 20 12 20
0z m100 0 c-8 -5 -19 -10 -25 -10 -5 0 -3 5 5 10 8 5 20 10 25 10 6 0 3 -5 -5
-10z m491 -21 c-13 -11 -27 -17 -30 -13 -3 3 5 14 18 25 13 11 27 17 30 13 3
-3 -5 -14 -18 -25z m-884 -1 c-3 -8 -6 -5 -6 6 -1 11 2 17 5 13 3 -3 4 -12 1
-19z m461 16 c29 -8 28 -20 -4 -28 -14 -4 -37 -18 -50 -31 -13 -13 -24 -20
-24 -16 0 5 17 23 38 40 37 31 16 33 -23 2 -14 -11 -12 -7 4 12 27 30 26 29
59 21z m179 -41 c-7 -6 -46 10 -41 18 3 5 14 3 24 -3 11 -7 18 -13 17 -15z
m-118 2 c-3 -2 -23 -7 -45 -10 -27 -3 -34 -2 -24 5 15 10 78 14 69 5z m361
-10 c-7 -8 -22 -15 -33 -15 -25 0 -12 16 18 23 11 3 22 5 24 6 2 0 -2 -6 -9
-14z m-705 -15 c3 -5 1 -10 -4 -10 -6 0 -11 5 -11 10 0 6 2 10 4 10 3 0 8 -4
11 -10z m355 1 c0 -8 -80 -22 -89 -15 -4 3 57 22 77 23 6 1 12 -3 12 -8z
m-437 -16 c37 -8 89 -14 170 -21 65 -6 77 -10 77 -25 0 -10 -9 -21 -21 -24
-31 -10 -192 6 -204 20 -13 16 -65 49 -65 41 0 -9 35 -43 51 -49 8 -3 3 -6
-10 -6 -28 -1 -50 24 -51 58 0 17 4 22 16 17 9 -3 26 -8 37 -11z m777 -7 c0
-5 -11 -8 -25 -8 -14 0 -25 3 -25 8 0 4 11 7 25 7 14 0 25 -3 25 -7z m-342
-23 c-2 -3 -20 -2 -39 2 l-34 7 30 6 c28 6 55 -3 43 -15z m122 11 c0 -10 -11
-14 -35 -13 -56 2 -41 19 23 26 6 0 12 -5 12 -13z m-122 -45 c5 -14 -4 -13
-48 4 l-35 14 40 -3 c21 -2 41 -8 43 -15z m115 10 c5 -1 5 -6 1 -12 -6 -11
-52 -4 -66 9 -6 6 22 7 65 3z m-161 -42 c29 -7 -74 -116 -109 -116 -15 0 -29
-6 -31 -12 -2 -6 -8 -11 -13 -11 -4 0 -6 6 -3 14 4 11 0 13 -18 9 -18 -4 -15
0 12 18 20 14 48 49 65 81 l29 56 26 -18 c14 -10 33 -19 42 -21z m-122 11 c-8
-5 -9 -13 -4 -21 6 -10 3 -10 -11 1 -17 14 -18 14 -6 -7 10 -20 9 -22 -5 -16
-13 5 -15 3 -9 -8 6 -11 5 -11 -4 -3 -21 19 19 81 42 67 5 -3 4 -9 -3 -13z
m257 -15 c0 -8 -4 -15 -9 -15 -10 0 -11 14 -1 23 9 10 10 9 10 -8z m-27 -26
c0 -5 -9 -9 -19 -9 -11 0 -23 -5 -27 -12 -5 -8 -2 -9 9 -5 11 4 17 1 17 -8 0
-13 -36 -31 -53 -27 -5 1 -6 -2 -2 -7 9 -15 -75 -55 -88 -42 -13 13 27 58 88
100 37 25 75 30 75 10z m-432 -126 c-14 -31 -47 -41 -75 -24 -15 9 -13 10 10
5 38 -9 55 9 64 70 8 49 8 50 11 14 2 -21 -3 -50 -10 -65z m135 -45 c-3 -18
-12 -40 -20 -49 -16 -19 -6 -31 40 -48 35 -14 40 -56 5 -46 -22 7 -22 6 -4 -7
13 -10 15 -17 8 -22 -7 -4 -26 17 -48 51 -22 34 -32 59 -25 61 6 2 11 10 11
18 0 8 5 14 10 14 6 0 8 11 6 24 -4 24 1 36 15 36 5 0 6 -15 2 -32z m97 7 c-7
-8 -10 -21 -7 -28 3 -7 -2 -22 -10 -32 -14 -19 -14 -17 -8 15 7 33 21 60 32
60 3 0 0 -7 -7 -15z m-46 -7 c-3 -4 0 -8 6 -8 6 0 8 -4 5 -10 -4 -6 -13 -5
-25 3 -25 15 -25 23 -1 23 11 0 17 -4 15 -8z m86 -8 c0 -5 -4 -10 -9 -10 -6 0
-13 5 -16 10 -3 6 1 10 9 10 9 0 16 -4 16 -10z m-236 -62 c-10 -18 -19 -28
-21 -21 -5 15 15 53 28 53 5 0 2 -15 -7 -32z m130 16 c9 -3 14 -10 11 -15 -7
-10 -35 0 -35 12 0 11 3 11 24 3z m96 -14 c0 -5 -7 -7 -15 -4 -8 4 -15 8 -15
10 0 2 7 4 15 4 8 0 15 -4 15 -10z m-135 -140 c22 21 41 27 30 11 -3 -6 8 -8
28 -4 40 6 59 -12 46 -44 -10 -27 -29 -29 -70 -7 -25 12 -28 18 -18 30 14 17
-2 19 -19 2 -8 -8 -9 -15 -1 -25 7 -7 8 -13 4 -13 -9 0 -75 66 -75 74 0 3 -13
20 -30 38 -16 18 -30 39 -30 46 0 8 25 -18 57 -57 l56 -71 22 20z m144 84 c9
-21 8 -24 -14 -30 -28 -7 -45 1 -45 23 0 12 3 13 13 4 8 -6 17 -8 20 -4 13 12
7 23 -13 23 -11 0 -20 4 -20 9 0 18 48 -2 59 -25z m-282 -26 c-3 -8 -6 -5 -6
6 -1 11 2 17 5 13 3 -3 4 -12 1 -19z m74 5 c13 -16 12 -17 -3 -4 -17 13 -22
21 -14 21 2 0 10 -8 17 -17z m57 -38 c-3 -3 -9 2 -12 12 -6 14 -5 15 5 6 7 -7
10 -15 7 -18z m185 -5 c12 -10 -19 -32 -40 -28 -10 2 -17 11 -17 20 1 11 -5
14 -19 10 -14 -4 -18 -1 -13 7 8 12 73 6 89 -9z m-108 -98 c-7 -7 -55 8 -55
17 0 5 13 4 30 -2 16 -6 27 -13 25 -15z"/>
<path d="M1610 1729 c0 -11 5 -17 10 -14 6 3 10 13 10 21 0 8 -4 14 -10 14 -5
0 -10 -9 -10 -21z"/>
<path d="M1444 1486 c-10 -8 -16 -17 -13 -20 3 -3 14 3 24 14 21 23 17 26 -11
6z"/>
<path d="M1215 1360 c4 -6 11 -8 16 -5 14 9 11 15 -7 15 -8 0 -12 -5 -9 -10z"/>
<path d="M1545 900 c-3 -5 -1 -10 4 -10 6 0 11 5 11 10 0 6 -2 10 -4 10 -3 0
-8 -4 -11 -10z"/>
<path d="M1205 1624 c-72 -79 -83 -131 -30 -140 6 -1 18 -5 27 -9 13 -5 28 9
65 60 80 111 80 111 58 134 -31 35 -56 26 -120 -45z m83 15 c-2 -6 -8 -10 -13
-10 -5 0 -11 4 -13 10 -2 6 4 11 13 11 9 0 15 -5 13 -11z m-38 -65 c0 -16 -16
-19 -25 -4 -8 13 4 32 16 25 5 -4 9 -13 9 -21z m-38 -49 c0 -5 -5 -11 -11 -13
-6 -2 -11 4 -11 13 0 9 5 15 11 13 6 -2 11 -8 11 -13z"/>
<path d="M1805 1669 c-11 -17 -2 -18 19 -3 17 12 17 14 4 14 -9 0 -20 -5 -23
-11z"/>
<path d="M1900 1612 c-13 -20 -29 -43 -35 -51 -7 -11 -7 -13 3 -7 14 9 65 86
60 91 -2 2 -14 -13 -28 -33z"/>
<path d="M1092 1438 c-7 -7 -12 -18 -12 -25 0 -7 -6 -13 -12 -13 -7 0 0 -7 15
-15 46 -24 79 3 61 49 -7 19 -35 21 -52 4z m43 -8 c11 -18 -6 -32 -23 -18 -13
11 -15 11 -7 -2 6 -12 5 -12 -5 -3 -7 6 -9 16 -6 22 9 14 33 14 41 1z"/>
<path d="M925 1300 c-3 -6 1 -7 9 -4 18 7 21 14 7 14 -6 0 -13 -4 -16 -10z"/>
<path d="M997 925 c-5 -11 0 -15 19 -15 16 0 24 5 22 13 -7 18 -35 20 -41 2z"/>
<path d="M1193 907 c0 -7 9 -13 19 -13 10 0 18 1 18 3 0 1 -8 7 -18 12 -13 7
-19 6 -19 -2z"/>
<path d="M997 884 c-10 -11 3 -24 24 -24 23 0 25 15 3 24 -19 7 -19 7 -27 0z"/>
<path d="M996 832 c-13 -12 -5 -22 19 -22 14 0 25 4 25 9 0 10 -36 21 -44 13z"/>
<path d="M992 778 c5 -15 37 -18 41 -3 1 6 -9 12 -22 13 -16 3 -22 -1 -19 -10z"/>
<path d="M990 739 c0 -15 5 -20 23 -17 27 4 26 19 -2 30 -17 6 -21 3 -21 -13z"/>
<path d="M1192 730 c0 -14 2 -19 5 -12 2 6 2 18 0 25 -3 6 -5 1 -5 -13z"/>
<path d="M1058 708 c-2 -38 -3 -42 -13 -58 -7 -13 -6 -13 7 -2 10 8 14 20 11
29 -4 10 -2 14 4 10 6 -4 8 3 5 18 -5 31 -12 32 -14 3z"/>
<path d="M990 695 c0 -11 7 -15 23 -13 12 2 22 8 22 13 0 6 -10 11 -22 13 -16
2 -23 -2 -23 -13z"/>
<path d="M1221 694 c0 -11 3 -14 6 -6 3 7 2 16 -1 19 -3 4 -6 -2 -5 -13z"/>
<path d="M1062 598 c7 -19 38 -22 38 -4 0 10 -9 16 -21 16 -12 0 -19 -5 -17
-12z"/>
<path d="M1124 599 c-10 -17 13 -36 27 -22 12 12 4 33 -11 33 -5 0 -12 -5 -16
-11z"/>
<path d="M1093 523 c9 -2 25 -2 35 0 9 3 1 5 -18 5 -19 0 -27 -2 -17 -5z"/>
<path d="M1253 513 c20 -2 54 -2 75 0 20 2 3 4 -38 4 -41 0 -58 -2 -37 -4z"/>
<path d="M823 294 c-3 -9 -2 -24 4 -33 7 -11 7 -21 -1 -33 -8 -14 -6 -22 9
-35 18 -17 18 -17 5 0 -11 15 -12 22 -1 39 10 16 10 22 0 28 -6 5 -9 17 -6 29
6 25 -1 28 -10 5z"/>
<path d="M1016 283 c6 -24 -11 -33 -19 -10 -2 7 -4 6 -3 -3 1 -9 13 -15 35
-16 27 -1 31 0 18 8 -10 5 -14 14 -11 20 4 6 3 8 -4 4 -5 -3 -13 0 -16 6 -3 7
-3 3 0 -9z"/>
<path d="M907 278 c7 -8 11 -17 8 -20 -3 -2 4 -4 15 -3 11 1 22 4 25 8 3 4 2
5 -2 2 -3 -3 -18 2 -32 12 -20 13 -23 13 -14 1z"/>
<path d="M930 225 c0 -8 4 -15 10 -15 5 0 7 7 4 15 -4 8 -8 15 -10 15 -2 0 -4
-7 -4 -15z"/>
<path d="M861 204 c0 -11 3 -14 6 -6 3 7 2 16 -1 19 -3 4 -6 -2 -5 -13z"/>
<path d="M890 203 c0 -7 6 -13 13 -13 8 0 14 6 14 13 0 8 -6 14 -14 14 -7 0
-13 -6 -13 -14z"/>
<path d="M990 201 c0 -25 6 -27 13 -6 4 8 2 17 -3 20 -6 4 -10 -3 -10 -14z"/>
<path d="M1031 204 c0 -11 3 -14 6 -6 3 7 2 16 -1 19 -3 4 -6 -2 -5 -13z"/>
</g>
</svg>
